<?xml version="1.0" encoding="utf-8"?>
<!-- Generator: Adobe Illustrator 22.0.1, SVG Export Plug-In . SVG Version: 6.00 Build 0)  -->
<svg version="1.1" id="Layer_1" xmlns="http://www.w3.org/2000/svg" xmlns:xlink="http://www.w3.org/1999/xlink" x="0px" y="0px"
	 viewBox="0 0 40 42" style="enable-background:new 0 0 40 42;" xml:space="preserve">
<style type="text/css">
	.st0{fill:#FF8B00;}
</style>
<path class="st0" d="M20,0C9,0,0,8.1,0,18c0,9.6,8.3,17.4,18.8,17.9C19.5,39.6,20,42,20,42s5-3,9.6-8.2C35.8,30.7,40,24.8,40,18
	C40,8.1,31,0,20,0z M12,20c-1.1,0-2-0.9-2-2s0.9-2,2-2c1.1,0,2,0.9,2,2S13.1,20,12,20z M20,20c-1.1,0-2-0.9-2-2s0.9-2,2-2
	c1.1,0,2,0.9,2,2S21.1,20,20,20z M28,20c-1.1,0-2-0.9-2-2s0.9-2,2-2c1.1,0,2,0.9,2,2S29.1,20,28,20z"/>
</svg>
