<svg height="158.241758" viewBox="0 0 400 158.24175824" width="400" xmlns="http://www.w3.org/2000/svg"><g fill-rule="evenodd"><path d="m17.034 7.199c-.292.292-.293 139.976-.001 140.268.292.291 79.976.291 80.267 0 .29-.291.29-36.977 0-37.267-.153-.153-4.653-.2-19.24-.2-15.049 0-19.069-.044-19.175-.208-.074-.115-.173-23.271-.218-51.459l-.084-51.25-20.674-.042c-15.942-.033-20.72.004-20.875.158m99.376.009c-.043.115-.059 31.746-.036 70.292l.043 70.083 40.066.042c29.477.031 40.125-.007 40.291-.145.314-.26.339-36.967.026-37.28-.153-.153-4.648-.2-19.217-.2-14.568 0-19.063-.047-19.216-.2-.155-.155-.2-11.778-.2-51.3s-.046-51.145-.2-51.3c-.298-.298-41.443-.29-41.557.008m74.61.018c-.138.166-.177 5.211-.146 18.792l.043 18.565 12.849.084c10.554.068 12.899.124 13.125.312.255.212.276 4 .276 51.258 0 39.468.045 51.075.2 51.23.284.284 40.419.29 41.042.006l.424-.193v-51.036c0-47.266.021-51.053.276-51.265.226-.188 2.545-.244 12.958-.312l12.683-.084.042-18.565c.031-13.581-.008-18.626-.145-18.792-.281-.338-93.346-.338-93.627 0m109.813.822c-.606.306-.702 1.966-.146 2.557l.371.395h20.287c18.344 0 20.296-.025 20.387-.264.056-.145.101-.738.101-1.319s-.045-1.175-.101-1.32c-.136-.356-40.194-.404-40.899-.049m11.75 8.958c-.366.074-.929.245-1.25.38-.321.134-.973.296-1.449.36s-1.026.255-1.222.425-.594.36-.884.423c-.29.064-.774.331-1.075.594-.302.263-.629.479-.728.479-.231 0-2.04 1.526-2.85 2.405-.988 1.072-1.091 1.208-1.449 1.91-.186.364-.412.708-.502.764-.091.056-.247.417-.348.803-.101.385-.297.789-.436.897-.742.575-.746 8.512-.005 9.363.132.151.335.574.452.941s.355.854.53 1.083c1.104 1.449 1.3 1.726 1.3 1.837 0 .169 1.338 1.497 1.508 1.497.246 0 .357.677.152.924-.148.178-.589.242-1.67.242-2.257 0-2.324.048-2.324 1.657 0 1.148.045 1.355.324 1.505.22.117 5.061.16 14.959.131l14.634-.043v-1.583-1.583l-1.993-.048c-2.257-.053-2.865-.289-2.316-.896.153-.169.36-.306.461-.306s.446-.304.766-.676c.32-.371.788-.899 1.04-1.172.252-.274.459-.555.459-.627 0-.071.135-.275.3-.452 1.248-1.346 2.465-6.081 2.074-8.073-.117-.596-.325-1.684-.462-2.417s-.387-1.521-.555-1.75c-.167-.229-.394-.689-.504-1.022-.11-.332-.346-.738-.526-.9-.18-.163-.327-.382-.327-.487 0-.281-2.822-3.258-3.088-3.258-.125 0-.325-.131-.445-.291-.119-.161-.499-.422-.842-.581-.344-.159-.625-.359-.625-.445s-.282-.248-.625-.36c-.344-.111-.813-.332-1.042-.491-.229-.158-.918-.374-1.53-.479s-1.437-.339-1.833-.518c-.778-.353-4.612-.456-6.054-.162m5.506 3.536c.278.145.803.317 1.167.383 1.846.335 5.5 2.818 6.242 4.242.12.229.313.473.43.543.118.069.304.407.413.75.11.343.33.773.489.957.943 1.088.794 8.583-.17 8.583-.074 0-.179.209-.235.464s-.287.679-.514.942c-.226.264-.411.524-.411.578 0 .411-2.567 2.678-3.036 2.681-.157.001-.359.138-.448.306-.09.167-.486.399-.881.516s-.842.323-.994.458c-.926.822-8.314.866-9.738.058-.282-.161-.78-.38-1.105-.487s-.724-.342-.887-.522-.385-.327-.493-.327c-.205 0-1.793-1.156-1.891-1.377-.031-.069-.293-.425-.583-.79-1.041-1.311-1.226-1.592-1.419-2.156-.108-.315-.31-.698-.449-.852-.329-.364-.799-3.492-.687-4.575.2-1.935.465-3.141.779-3.541.183-.231.332-.509.332-.617s.142-.349.316-.535c.173-.186.43-.557.571-.823.14-.266.565-.784.943-1.151s.82-.798.983-.958c.45-.445 1.914-1.459 2.106-1.459.093 0 .451-.151.796-.336s1.019-.417 1.498-.516c.479-.1 1.026-.279 1.216-.399.773-.488 4.742-.515 5.66-.04m-17.464 34.304c-.249.146-.477 2.734-.25 2.84.023.011.996.067 2.162.126 2.433.122 3.141.428 2.298.993-.629.421-3.168 3.047-3.168 3.276 0 .11-.151.337-.334.503-.184.166-.416.609-.516.984s-.291.805-.426.956c-.766.86-.747 8.455.023 9.307.148.163.349.586.446.939.098.354.357.856.576 1.116.218.26.397.579.397.709 0 .129.15.329.334.444.183.114.333.287.333.383 0 .197 1.243 1.578 1.42 1.578.062 0 .318.206.568.458.799.804 2.319 1.83 3.095 2.088.275.092.653.305.84.473.188.169.912.416 1.614.55.7.134 1.5.361 1.777.504.911.472 5.813.368 7.42-.156.702-.229 1.484-.417 1.739-.417.254 0 .716-.187 1.027-.417.311-.229.69-.416.843-.416s.561-.225.907-.5.732-.5.858-.5c.428 0 3.726-3.204 4.162-4.042.131-.252.306-.458.388-.458s.198-.223.257-.495c.06-.272.29-.76.51-1.086.221-.325.478-1.021.571-1.547s.314-1.618.492-2.428c.339-1.551.329-1.697-.31-4.194-.093-.367-.172-.9-.174-1.185-.002-.286-.179-.776-.392-1.091-.214-.315-.475-.819-.579-1.119-.105-.301-.38-.772-.612-1.047s-.421-.567-.421-.649c0-.235-1.51-1.84-2.333-2.48-1.101-.857-.6-.921 7.88-1.013l7.703-.083v-1.5-1.5l-20.417-.037c-13.662-.025-20.513.019-20.708.133m17.72 2.954c.738.104 1.594.354 2.066.605.443.236.898.428 1.011.428.914 0 4.911 3.742 4.911 4.598 0 .115.174.422.387.681s.48.901.595 1.427c.114.525.278.999.363 1.051.255.158.192 4.022-.075 4.543-.127.248-.283.769-.348 1.158-.064.389-.187.75-.273.803-.085.053-.338.457-.561.897s-.522.845-.663.9c-.142.054-.258.203-.258.33 0 .279-1.869 2.036-2.53 2.378-.258.133-.47.297-.47.364 0 .174-2.145 1.157-2.827 1.295-.317.064-.872.271-1.233.459-.934.487-5.043.525-5.94.055-.321-.168-1.031-.414-1.577-.545-.547-.132-1.109-.34-1.25-.464-.141-.123-.444-.28-.673-.35-.973-.295-4.167-3.188-4.167-3.774 0-.096-.187-.397-.416-.669-.229-.273-.417-.598-.417-.724s-.193-.589-.428-1.029c-.595-1.114-.571-6.225.034-7.217.196-.321.413-.771.482-1 .239-.791 3.476-4.333 3.961-4.333.124 0 .394-.179.599-.397s.626-.437.936-.488c.31-.05.774-.245 1.031-.433.326-.238.918-.392 1.95-.507.814-.091 1.525-.21 1.58-.265.131-.131 2.62.001 4.2.223m-5.178 31.187c-.688.065-1.513.236-1.834.38-.321.145-.971.315-1.444.378-.499.067-1.091.285-1.408.519-.3.221-.671.403-.824.403s-.459.142-.68.315c-.22.173-.629.455-.908.625-1.139.695-1.605 1.042-2.564 1.902-.553.497-1.005.995-1.005 1.108 0 .112-.15.285-.333.383-.184.098-.334.283-.334.41s-.176.443-.392.702-.488.771-.605 1.138c-.116.367-.32.791-.452.942-.695.797-.764 9.046-.084 9.966.195.263.44.818.544 1.233.105.415.333.884.507 1.041.173.158.316.381.316.496 0 .274.515.902 1.76 2.146 1.714 1.711 1.761 1.747 3.698 2.781.39.208.708.438.708.512 0 .808 2.09-1.743 2.165-2.642.001-.014-.204-.109-.456-.211-.423-.171-1.004-.543-2.029-1.299-.689-.509-2.68-2.573-2.68-2.779 0-.107-.148-.322-.328-.477-.181-.155-.381-.49-.445-.745-.063-.255-.291-.794-.504-1.197-.214-.403-.389-.961-.389-1.24s-.089-.934-.196-1.456c-.207-1.002.039-4.025.386-4.738.24-.494 1.014-1.814 1.381-2.357.745-1.102 3.095-3.131 3.962-3.422.302-.102.664-.283.804-.403s.59-.27 1-.333c.41-.064 1.095-.251 1.521-.416.923-.358 2.254-.448 2.744-.186.546.292.561.644.562 13.242l.002 11.792 1.459-.001c.973-.001 1.618-.085 1.94-.252.265-.139 1.015-.337 1.666-.442.652-.105 1.373-.317 1.602-.472s.664-.366.966-.468c.302-.103.744-.339.981-.526.237-.186.502-.339.589-.339.29 0 3.04-2.461 3.631-3.249.32-.428.723-.93.893-1.116.171-.187.385-.611.477-.943s.307-.781.477-.998c.171-.217.358-.668.415-1.003.058-.334.276-1.49.486-2.568l.38-1.96-.531-2.644c-.334-1.662-.635-2.747-.81-2.922-.153-.153-.358-.575-.456-.938-.098-.362-.248-.659-.333-.659-.086 0-.273-.226-.416-.502-.504-.975-3.018-3.304-4.328-4.011-2.212-1.192-3.183-1.654-3.486-1.657-.193-.002-.86-.183-1.482-.403-1.275-.45-4.088-.647-6.286-.44m7.679 4.497c.314.192.696.348.85.349.153 0 .501.188.774.417.272.229.57.417.661.417.149 0 2.261 2.033 2.77 2.666 1.017 1.266 2.228 5.659 1.805 6.552-.095.201-.289 1.062-.432 1.913-.167.993-.382 1.704-.6 1.981-.188.238-.341.529-.341.646 0 .367-2.761 3.407-3.096 3.408-.098 0-.355.188-.57.417-.216.229-.556.417-.757.417s-.557.15-.791.334c-.234.185-.656.372-.939.417-2.231.356-2.013 1.455-2.013-10.147 0-7.671.046-9.919.208-10.086.298-.308 1.767-.13 2.471.299m-20.138 30.688c-.614.247-.569 2.762.055 2.999.273.105 7.772.148 20.708.121l20.279-.042v-1.583-1.584l-20.333-.031c-11.852-.018-20.49.031-20.709.12m72.709 2.648c-.275.075-.725.259-1 .407-.275.149-.62.271-.767.272s-.577.226-.957.501-.738.5-.797.5c-.094 0-2.053 2.005-2.612 2.674-.118.141-.314.496-.435.787-.12.292-.354.686-.518.875-.165.19-.385.836-.489 1.435-.105.6-.277 1.23-.384 1.401-.154.246-.135.435.088.903.485 1.017.689.724.957-1.379.074-.58.253-1.185.397-1.344.144-.16.351-.548.458-.863.587-1.712 3.743-4.544 5.473-4.91.319-.067.766-.244.993-.393.588-.385 4.204-.381 4.926.006.275.147.762.322 1.083.389.982.204 2.394 1.179 3.867 2.669 1.255 1.269 1.283 1.309 1.567 2.14.145.427.329.777.409.777.195 0 .437 1.006.573 2.375.118 1.195.203 1.304.642.82.452-.499-.046-3.454-.727-4.32-.182-.231-.331-.516-.331-.634 0-.348-2.766-3.408-3.081-3.408-.066 0-.341-.186-.611-.412-.269-.227-.798-.496-1.175-.597-.377-.102-.875-.308-1.105-.46-.471-.308-5.493-.473-6.444-.211m-1.297 4.449c-.212.212-.143 11.499.073 11.973.209.458.85.585 1.089.216.074-.114.172-1.311.218-2.658.1-2.939.065-2.883 1.824-2.883 1.443 0 1.883.221 2.091 1.054.061.245.211.558.332.696.122.137.305.56.405.939.101.378.295.781.432.894.136.114.335.497.441.852.332 1.108 1.843 1.718 2.155.87.095-.259.041-.467-.189-.733-.177-.204-.391-.621-.476-.928-.084-.306-.272-.675-.417-.821-.145-.145-.307-.464-.359-.71-.11-.517-.317-.994-.608-1.399-.253-.353.424-1.142 1.417-1.653 1.712-.881 1.426-4.359-.43-5.238-1.03-.488-7.595-.874-7.998-.471m5.301.793c.181.126.563.28.85.342 1.753.381 2.184 2.867.702 4.054l-.676.542h-2.128c-2.599 0-2.563.028-2.644-2.034-.068-1.706.048-2.515.41-2.877.342-.342 3.004-.362 3.486-.027m-74.088.83c-.229.1-.466.252-.526.338s-.308.388-.552.671c-.78.909-1.422 1.806-1.422 1.988 0 .097-.197.461-.437.808-.815 1.175-.791 6.792.032 7.749.223.259.405.56.405.67 0 .265 2.128 2.384 2.395 2.384.115 0 .382.161.594.358 1.33 1.24 7.421 1.233 8.663-.01.192-.191.453-.348.581-.348.129 0 .522-.307.875-.683.353-.375.811-.853 1.017-1.061.207-.207.375-.437.375-.509 0-.123.628-1.019 1.435-2.049.192-.246.444-.735.558-1.085s.313-.677.441-.726.233-.175.233-.28c.001-.254 1.141-1.896 1.757-2.531 3.136-3.226 7.656-1.788 8.032 2.555.042.484.001.971-.09 1.083-.092.111-.255.54-.364.953-.109.412-.333.9-.497 1.083s-.419.57-.565.86c-.147.29-.455.676-.686.858-.572.45-.575 1.226-.005 1.531.229.123.531.398.671.612.433.661 1.236.534 1.926-.307.314-.383.698-.829.854-.991.155-.162.41-.543.565-.846s.422-.729.592-.948c.171-.218.31-.572.31-.785 0-.214.155-.78.344-1.26.375-.952.48-2.329.204-2.673-.096-.12-.311-.804-.477-1.52-.285-1.223-.366-1.364-1.339-2.333-1.48-1.473-1.696-1.636-2.488-1.875-.391-.117-.939-.332-1.219-.477-.719-.372-3.906-.368-4.608.005-.275.147-.844.37-1.265.498-.42.127-.9.382-1.067.566s-.378.335-.469.335c-.176 0-1.254 1.054-1.533 1.5-.091.146-.316.513-.5.816-.183.302-.539.815-.791 1.14-.252.324-.459.666-.459.76 0 .093-.187.415-.416.715-.229.301-.417.597-.417.659 0 .061-.187.335-.417.607-.229.272-.416.583-.417.691 0 .107-.187.413-.416.68-.229.266-.417.544-.417.618 0 .728-2.849 2.304-4.166 2.304-1.338 0-4.167-1.578-4.167-2.324 0-.084-.169-.31-.375-.502-.345-.321-.379-.521-.43-2.51l-.055-2.161.506-.788c.77-1.2 1.563-2.189 1.975-2.462.401-.265.258-.979-.259-1.302-.126-.079-.353-.291-.504-.472-.472-.565-1.052-.784-1.525-.577m62.361 5.441c-.413.671-.424.738-.183 1.187.097.182.252.796.343 1.364.096.597.301 1.176.486 1.373.176.187.408.592.515.9s.306.689.442.846c.735.855 2.397 2.497 2.527 2.497.083 0 .362.177.622.393.259.215.771.487 1.137.604.367.116.797.325.955.463.784.685 6.354.637 7.56-.064.375-.218.796-.396.935-.396.14 0 .538-.225.884-.5s.706-.5.8-.5c.201 0 .423-.191 1.486-1.279 1.209-1.237 1.386-1.463 1.626-2.072.122-.311.335-.657.471-.769.621-.506.975-3.769.418-3.849-.389-.055-.4-.024-.636 1.832-.054.429-.235.954-.401 1.167s-.36.574-.431.803c-.191.619-2.042 2.834-2.368 2.834-.112 0-.287.156-.39.347-.102.191-.437.453-.744.581s-.604.307-.66.398-.418.245-.803.344c-.386.098-1.077.337-1.535.53-1.181.497-3.914.508-4.854.02-.355-.185-.917-.386-1.248-.448s-.729-.252-.884-.423c-.154-.171-.483-.354-.731-.407-.801-.17-3.304-2.849-3.675-3.932-.107-.314-.313-.702-.457-.861-.144-.16-.329-.802-.412-1.428-.082-.626-.213-1.363-.292-1.638l-.144-.5z" fill="#fbfbfb"/><path d="m16.759 7.037c-.233.334-.259 7.279-.259 70.311v69.94l.345.44.346.439h39.967c36.973 0 39.985-.021 40.197-.276.307-.37.431-37.463.127-37.83-.158-.19-3.311-.228-19.136-.228-14.513 0-18.993-.046-19.146-.2-.155-.154-.2-11.746-.2-51.158 0-38.317-.048-51.065-.193-51.384l-.194-.424h-20.797-20.797zm99.434.054c-.295.647-.272 139.992.023 140.576l.211.416 40.127.042 40.127.042.41-.409.409-.41v-18.498-18.498l-.37-.259c-.33-.231-2.416-.26-19.073-.26-11.748 0-18.861-.06-19.129-.162l-.428-.163v-51.05c0-45.935-.026-51.088-.259-51.421l-.26-.37h-20.797-20.797zm74.474-.091c-.33.329-.334.556-.334 18.912v18.579l.492.255c.428.221 2.104.254 12.903.254 6.826 0 12.53.046 12.675.101.24.092.264 4.756.264 51.174v51.073l.411.412.412.412 20.582-.044c19.504-.042 20.598-.06 20.88-.342.284-.284.302-2.633.381-51.5l.084-51.203 12.583-.083c9.821-.065 12.666-.13 12.958-.298l.375-.214v-18.577c0-18.355-.004-18.582-.333-18.911-.332-.332-.556-.333-47.167-.333s-46.835.001-47.166.333m-132 51.333c.045 28.188.144 51.344.218 51.459.106.164 4.126.208 19.175.208 14.587 0 19.087.047 19.24.2.29.29.29 36.976 0 37.267-.291.291-79.975.291-80.267 0-.292-.292-.291-139.976.001-140.268.155-.154 4.933-.191 20.875-.158l20.674.042zm99.3-51.133c.154.155.2 11.778.2 51.3s.045 51.145.2 51.3c.153.153 4.648.2 19.216.2 14.569 0 19.064.047 19.217.2.313.313.288 37.02-.026 37.28-.166.138-10.814.176-40.291.145l-40.066-.042-.043-70.083c-.023-38.546-.007-70.177.036-70.292.114-.298 41.259-.306 41.557-.008m126.68.026c.137.166.176 5.211.145 18.792l-.042 18.565-12.683.084c-10.413.068-12.732.124-12.958.312-.255.212-.276 3.999-.276 51.265v51.036l-.424.193c-.623.284-40.758.278-41.042-.006-.155-.155-.2-11.762-.2-51.23 0-47.258-.021-51.046-.276-51.258-.226-.188-2.571-.244-13.125-.312l-12.849-.084-.043-18.565c-.031-13.581.008-18.626.146-18.792.281-.338 93.346-.338 93.627 0m15.615.536c-.563.563-.549 2.942.02 3.363.547.405 41.494.293 41.712-.114.095-.177.173-.895.173-1.594 0-.7-.078-1.417-.173-1.595-.243-.453-41.279-.513-41.732-.06m41.47.335c.056.145.101.739.101 1.32s-.045 1.174-.101 1.319c-.091.239-2.043.264-20.387.264h-20.287l-.371-.395c-.556-.591-.46-2.251.146-2.557.705-.355 40.763-.307 40.899.049m-29.815 8.724c-.459.07-1.113.251-1.453.403-.341.152-.745.276-.898.276-.289 0-2.531 1.074-3.584 1.716-1.242.759-3.226 2.599-3.982 3.694-.229.332-.623.873-.875 1.203s-.458.714-.458.854c0 .139-.178.56-.394.935-1.125 1.947-1.197 8.714-.109 10.265.161.229.348.604.417.833.22.737 1.609 2.707 2.621 3.715 1.295 1.291 1.183 1.452-1.019 1.452-2.194 0-2.35.116-2.35 1.751 0 1.391.21 2.01.729 2.149.195.052 6.932.096 14.97.097l14.616.003.259-.371c.324-.461.37-3.119.06-3.429-.131-.131-.815-.2-1.968-.2-2.431 0-2.666-.183-1.47-1.143.488-.391 1.075-.975 1.304-1.296.23-.321.572-.785.761-1.031 2.223-2.889 2.951-7.585 1.769-11.421-.279-.902-.615-1.765-.748-1.916-.133-.152-.299-.464-.368-.693s-.284-.618-.478-.863-.576-.755-.85-1.134c-.538-.746-1.81-2-2.646-2.61-1.271-.927-2.521-1.727-2.7-1.727-.107 0-.384-.149-.616-.331-.231-.182-.816-.416-1.298-.519-.483-.104-1.147-.305-1.477-.448-.673-.292-6.242-.445-7.765-.214m6.72.347c.396.179 1.221.413 1.833.518s1.301.321 1.53.479c.229.159.698.38 1.042.491.343.112.625.274.625.36s.281.286.625.445c.343.159.723.42.842.581.12.16.32.291.445.291.266 0 3.088 2.977 3.088 3.258 0 .105.147.324.327.487.18.162.416.568.526.9.11.333.337.793.504 1.022.168.229.418 1.017.555 1.75s.345 1.821.462 2.417c.391 1.992-.826 6.727-2.074 8.073-.165.177-.3.381-.3.452 0 .072-.207.353-.459.627-.252.273-.72.801-1.04 1.172-.32.372-.665.676-.766.676s-.308.137-.461.306c-.549.607.059.843 2.316.896l1.993.048v1.583 1.583l-14.634.043c-9.898.029-14.739-.014-14.959-.131-.279-.15-.324-.357-.324-1.505 0-1.609.067-1.657 2.324-1.657 1.081 0 1.522-.064 1.67-.242.205-.247.094-.924-.152-.924-.17 0-1.508-1.328-1.508-1.497 0-.111-.196-.388-1.3-1.837-.175-.229-.413-.716-.53-1.083s-.32-.79-.452-.941c-.741-.851-.737-8.788.005-9.363.139-.108.335-.512.436-.897.101-.386.257-.747.348-.803.09-.056.316-.4.502-.764.358-.702.461-.838 1.449-1.91.81-.879 2.619-2.405 2.85-2.405.099 0 .426-.216.728-.479.301-.263.785-.53 1.075-.594.29-.063.688-.253.884-.423s.746-.361 1.222-.425 1.128-.226 1.449-.36c1.539-.644 6.068-.779 7.304-.218m-5.458 3.11c-.223.047-.56.184-.75.304s-.737.299-1.216.399c-.479.099-1.153.331-1.498.516s-.703.336-.796.336c-.192 0-1.656 1.014-2.106 1.459-.163.16-.605.591-.983.958s-.803.885-.943 1.151c-.141.266-.398.637-.571.823-.174.186-.316.427-.316.535s-.149.386-.332.617c-.314.4-.579 1.606-.779 3.541-.112 1.083.358 4.211.687 4.575.139.154.341.537.449.852.193.564.378.845 1.419 2.156.29.365.552.721.583.79.098.221 1.686 1.377 1.891 1.377.108 0 .33.147.493.327s.562.415.887.522.823.326 1.105.487c1.424.808 8.812.764 9.738-.058.152-.135.599-.341.994-.458s.791-.349.881-.516c.089-.168.291-.305.448-.306.469-.003 3.036-2.27 3.036-2.681 0-.054.185-.314.411-.578.227-.263.458-.687.514-.942s.161-.464.235-.464c.964 0 1.113-7.495.17-8.583-.159-.184-.379-.614-.489-.957-.109-.343-.295-.681-.413-.75-.117-.07-.31-.314-.43-.543-.742-1.424-4.396-3.907-6.242-4.242-.364-.066-.889-.238-1.167-.383-.513-.266-4.021-.455-4.91-.264m4.988.695c2.633.638 6.957 3.266 6.994 4.251.003.078.174.377.381.665.206.289.636 1.013.956 1.609l.581 1.085.002 2.926.002 2.925-.577 1.158c-1.135 2.275-2.905 4.247-4.438 4.945-.221.101-.401.24-.401.31 0 .069-.394.256-.875.415-.482.159-1.032.391-1.223.515-1.179.765-7.37.704-8.902-.089-.321-.166-.787-.352-1.036-.413-.459-.113-1.783-.938-2.369-1.476-.176-.163-.441-.333-.589-.38-.147-.047-.399-.308-.559-.579-.161-.272-.386-.591-.501-.709-.265-.273-1.28-1.784-1.28-1.907 0-.051-.194-.478-.431-.95-1.126-2.239-.633-8.02.763-8.941.07-.046.282-.34.472-.654 2.263-3.743 8.18-5.88 13.03-4.706m-17.667 33.476c-.514.184-.667.618-.667 1.896 0 1.668.021 1.683 2.489 1.785 2.04.084 2.649.231 2.178.527-.604.38-1.817 1.468-2.147 1.926-.198.275-.586.8-.862 1.167-2.143 2.847-2.932 9.813-1.383 12.22.136.213.346.664.466 1.004.62 1.756 3.137 4.579 5.436 6.098 2.996 1.978 5.736 2.681 9.947 2.551 4.545-.139 6.96-1.06 10.46-3.987 1.195-.999 1.618-1.459 2.753-2.992.485-.657 1.497-2.613 1.497-2.896 0-.136.165-.716.366-1.289.792-2.249.291-7.309-.888-8.985-.172-.243-.312-.509-.312-.592 0-.345-1.447-2.336-2.429-3.343-.584-.598-1.021-1.151-.973-1.23.049-.078 3.464-.142 7.59-.142 4.852 0 7.615-.061 7.823-.173.388-.207.49-3.094.123-3.461-.205-.204-40.9-.287-41.467-.084m41.25 1.801v1.5l-7.703.083c-8.48.092-8.981.156-7.88 1.013.823.64 2.333 2.245 2.333 2.48 0 .082.189.374.421.649s.507.746.612 1.047c.104.3.365.804.579 1.119.213.315.39.805.392 1.091.002.285.081.818.174 1.185.639 2.497.649 2.643.31 4.194-.178.81-.399 1.902-.492 2.428s-.35 1.222-.571 1.547c-.22.326-.45.814-.51 1.086-.059.272-.175.495-.257.495s-.257.206-.388.458c-.436.838-3.734 4.042-4.162 4.042-.126 0-.512.225-.858.5s-.754.5-.907.5-.532.187-.843.416c-.311.23-.773.417-1.027.417-.255 0-1.037.188-1.739.417-1.607.524-6.509.628-7.42.156-.277-.143-1.077-.37-1.777-.504-.702-.134-1.426-.381-1.614-.55-.187-.168-.565-.381-.84-.473-.776-.258-2.296-1.284-3.095-2.088-.25-.252-.506-.458-.568-.458-.177 0-1.42-1.381-1.42-1.578 0-.096-.15-.269-.333-.383-.184-.115-.334-.315-.334-.444 0-.13-.179-.449-.397-.709-.219-.26-.478-.762-.576-1.116-.097-.353-.298-.776-.446-.939-.77-.852-.789-8.447-.023-9.307.135-.151.326-.581.426-.956s.332-.818.516-.984c.183-.166.334-.393.334-.503 0-.229 2.539-2.855 3.168-3.276.843-.565.135-.871-2.298-.993-1.166-.059-2.139-.115-2.162-.126-.227-.106.001-2.694.25-2.84.195-.114 7.046-.158 20.708-.133l20.417.037zm-27.605 1.327c-.055.055-.766.174-1.58.265-1.032.115-1.624.269-1.95.507-.257.188-.721.383-1.031.433-.31.051-.731.27-.936.488s-.475.397-.599.397c-.485 0-3.722 3.542-3.961 4.333-.069.229-.286.679-.482 1-.605.992-.629 6.103-.034 7.217.235.44.428.903.428 1.029s.188.451.417.724c.229.272.416.573.416.669 0 .586 3.194 3.479 4.167 3.774.229.07.532.227.673.35.141.124.703.332 1.25.464.546.131 1.256.377 1.577.545.897.47 5.006.432 5.94-.055.361-.188.916-.395 1.233-.459.682-.138 2.827-1.121 2.827-1.295 0-.067.212-.231.47-.364.661-.342 2.53-2.099 2.53-2.378 0-.127.116-.276.258-.33.141-.055.44-.46.663-.9s.476-.844.561-.897c.086-.053.209-.414.273-.803.065-.389.221-.91.348-1.158.267-.521.33-4.385.075-4.543-.085-.052-.249-.526-.363-1.051-.115-.526-.382-1.168-.595-1.427s-.387-.566-.387-.681c0-.856-3.997-4.598-4.911-4.598-.113 0-.568-.192-1.011-.428-1.04-.553-5.899-1.195-6.266-.828m4.272.584c.778.128 2.685.819 3.25 1.177.137.087.534.312.881.5.798.432 2.573 2.221 3.119 3.145.229.387.578.955.775 1.261 1.285 1.992 1.318 7.275.056 8.879-.182.232-.331.517-.331.632 0 .824-3.102 3.638-5.061 4.592-5.582 2.719-13.561.788-15.944-3.858-.167-.327-.422-.693-.566-.812-.145-.12-.263-.34-.264-.489s-.203-.684-.448-1.188c-.998-2.052-.521-6.512.901-8.432.21-.284.382-.586.382-.671 0-.243 2.694-2.829 3.25-3.119 1.716-.896 3.177-1.493 3.964-1.622.992-.162 5.04-.158 6.036.005m-6.5 30.61c-4.054.996-7.868 3.254-9.834 5.823-.803 1.05-1.41 1.976-1.413 2.157-.002.093-.184.508-.405.923-1.506 2.828-1.166 9.432.651 12.659.129.23.387.694.574 1.033.698 1.262 4.449 4.634 5.156 4.634.067 0 .377.187.687.417.96.707 1.435.428 2.473-1.456.725-1.314.844-1.124-1.701-2.699-1.255-.777-3.587-3.573-3.932-4.716-.077-.255-.26-.696-.407-.981-.723-1.403-.692-5.991.047-7.041.17-.242.36-.603.421-.8.139-.447 1.721-2.589 2.057-2.784.135-.08.377-.274.535-.433 1.482-1.481 7.009-3.405 7.725-2.689.15.149.21 3.24.244 12.435l.045 12.236.677.202c1.096.329 6.037-.487 6.834-1.128.128-.103.57-.342.982-.532 1.719-.789 4.038-2.643 5.169-4.131.411-.541.791-1.021.845-1.067 1.531-1.297 2.668-8.539 1.726-11-.122-.32-.304-.9-.403-1.287-.163-.636-.65-1.623-1.587-3.216-.919-1.564-4.231-4.335-5.833-4.88-.275-.093-.679-.308-.897-.477-.219-.168-.519-.308-.667-.31s-.794-.2-1.436-.44c-1.136-.425-7.122-.75-8.333-.452m7.536.656c.622.22 1.289.401 1.482.403.303.003 1.274.465 3.486 1.657 1.31.707 3.824 3.036 4.328 4.011.143.276.33.502.416.502.085 0 .235.297.333.659.098.363.303.785.456.938.175.175.476 1.26.81 2.922l.531 2.644-.38 1.96c-.21 1.078-.428 2.234-.486 2.568-.057.335-.244.786-.415 1.003-.17.217-.385.666-.477.998s-.306.756-.477.943c-.17.186-.573.688-.893 1.116-.591.788-3.341 3.249-3.631 3.249-.087 0-.352.153-.589.339-.237.187-.679.423-.981.526-.302.102-.737.313-.966.468s-.95.367-1.602.472c-.651.105-1.401.303-1.666.442-.322.167-.967.251-1.94.252l-1.459.001-.002-11.792c-.001-12.598-.016-12.95-.562-13.242-.49-.262-1.821-.172-2.744.186-.426.165-1.111.352-1.521.416-.41.063-.86.213-1 .333s-.502.301-.804.403c-.867.291-3.217 2.32-3.962 3.422-.367.543-1.141 1.863-1.381 2.357-.347.713-.593 3.736-.386 4.738.107.522.196 1.177.196 1.456s.175.837.389 1.24c.213.403.441.942.504 1.197.064.255.264.59.445.745.18.155.328.37.328.477 0 .206 1.991 2.27 2.68 2.779 1.025.756 1.606 1.128 2.029 1.299.252.102.457.197.456.211-.075.899-2.165 3.45-2.165 2.642 0-.074-.318-.304-.708-.512-1.937-1.034-1.984-1.07-3.698-2.781-1.245-1.244-1.76-1.872-1.76-2.146 0-.115-.143-.338-.316-.496-.174-.157-.402-.626-.507-1.041-.104-.415-.349-.97-.544-1.233-.68-.92-.611-9.169.084-9.966.132-.151.336-.575.452-.942.117-.367.389-.879.605-1.138s.392-.575.392-.702.15-.312.334-.41c.183-.098.333-.271.333-.383 0-.113.452-.611 1.005-1.108.959-.86 1.425-1.207 2.564-1.902.279-.17.688-.452.908-.625.221-.173.527-.315.68-.315s.524-.182.824-.403c.317-.234.909-.452 1.408-.519.473-.063 1.123-.233 1.444-.378 1.422-.639 6.239-.603 8.12.06m-1.078 3.758c-.162.167-.208 2.415-.208 10.086 0 10.879-.04 10.472 1.006 10.307.272-.043.725-.115 1.007-.16.283-.045.705-.232.939-.417.234-.184.59-.334.791-.334s.541-.188.757-.417c.215-.229.472-.417.57-.417.335-.001 3.096-3.041 3.096-3.408 0-.117.153-.408.341-.646.218-.277.433-.988.6-1.981.143-.851.337-1.712.432-1.913.423-.893-.788-5.286-1.805-6.552-.509-.633-2.621-2.666-2.77-2.666-.091 0-.389-.188-.661-.417-.273-.229-.621-.417-.774-.417-.154-.001-.536-.157-.85-.349-.704-.429-2.173-.607-2.471-.299m1.961.458c.319.171.768.367.997.437.973.295 3.199 2.099 4.291 3.476 2.158 2.72 2.158 8.596 0 11.396-1.086 1.41-3.258 3.241-4.207 3.547-.367.118-.815.317-.996.441-.181.125-.687.227-1.125.227h-.796v-9.806c0-5.393.05-9.855.111-9.917.215-.215 1.151-.107 1.725.199m-19.753 30.14c-.749.176-1.115 2.653-.513 3.477.277.379 41.072.61 41.769.237.492-.263.496-3.395.005-3.658-.321-.172-40.533-.226-41.261-.056m41.167 1.884v1.583l-20.279.042c-12.936.027-20.435-.016-20.708-.121-.624-.237-.669-2.752-.055-2.999.219-.089 8.857-.138 20.709-.12l20.333.031zm31.737.835c-.42.071-1.058.277-1.417.459-.359.181-.841.387-1.07.458-1.689.519-5.056 4.561-5.408 6.492-.066.363-.227.866-.356 1.117-.71 1.373-.073 6.137 1.041 7.778.214.316.39.645.39.733 0 .66 3.725 4.128 4.435 4.128.083 0 .514.193.959.43 2.605 1.387 7.628.838 10.522-1.149 1.756-1.205 1.753-1.202 2.886-2.615 2.836-3.535 2.888-10.027.109-13.5-3.004-3.752-7.018-5.19-12.091-4.331m6.374.529c.23.152.728.358 1.105.46.377.101.906.37 1.175.597.27.226.545.412.611.412.315 0 3.081 3.06 3.081 3.408 0 .118.149.403.331.634.681.866 1.179 3.821.727 4.32-.439.484-.524.375-.642-.82-.136-1.369-.378-2.375-.573-2.375-.08 0-.264-.35-.409-.777-.284-.831-.312-.871-1.567-2.14-1.473-1.49-2.885-2.465-3.867-2.669-.321-.067-.808-.242-1.083-.389-.722-.387-4.338-.391-4.926-.006-.227.149-.674.326-.993.393-1.73.366-4.886 3.198-5.473 4.91-.107.315-.314.703-.458.863-.144.159-.323.764-.397 1.344-.268 2.103-.472 2.396-.957 1.379-.223-.468-.242-.657-.088-.903.107-.171.279-.801.384-1.401.104-.599.324-1.245.489-1.435.164-.189.398-.583.518-.875.121-.291.317-.646.435-.787.559-.669 2.518-2.674 2.612-2.674.059 0 .417-.225.797-.5s.81-.5.957-.501.492-.123.767-.272c.885-.478 1.449-.546 4.262-.508 2.241.031 2.842.09 3.182.312m-1.375 1.057c2.911.72 5.701 2.86 6.495 4.982.193.517.483 1.141.644 1.386.478.73.427 5.348-.071 6.377-.199.413-.481 1.013-.626 1.334-1.052 2.325-3.349 4.006-6.652 4.866l-1.975.514-1.775-.448c-2.205-.558-3.558-1.245-4.808-2.444-.962-.924-2.218-2.593-2.218-2.949 0-.103-.151-.444-.337-.758-.783-1.328-.773-5.432.018-6.718.175-.285.319-.615.319-.732 0-1.414 3.706-4.646 6.006-5.238.593-.152 1.265-.34 1.494-.418.751-.253 1.757-.182 3.486.246m-6.646 3.066c-.134.25-.174 2.105-.14 6.324.055 6.536.053 6.524 1.029 6.519.984-.004 1.013-.08 1.107-2.896.098-2.949.02-2.761 1.188-2.877 1.235-.123 1.753.117 2.125.982 1.706 3.966 2.302 4.794 3.451 4.794 1.42 0 1.32-.513-1.004-5.179-.223-.449.287-1.061 1.362-1.633 1.772-.943 1.37-4.751-.604-5.726l-1.104-.544-3.611-.059c-3.536-.057-3.614-.051-3.799.295m8.278.586c1.856.879 2.142 4.357.43 5.238-.993.511-1.67 1.3-1.417 1.653.291.405.498.882.608 1.399.052.246.214.565.359.71.145.146.333.515.417.821.085.307.299.724.476.928.23.266.284.474.189.733-.312.848-1.823.238-2.155-.87-.106-.355-.305-.738-.441-.852-.137-.113-.331-.516-.432-.894-.1-.379-.283-.802-.405-.939-.121-.138-.271-.451-.332-.696-.208-.833-.648-1.054-2.091-1.054-1.759 0-1.724-.056-1.824 2.883-.046 1.347-.144 2.544-.218 2.658-.239.369-.88.242-1.089-.216-.216-.474-.285-11.761-.073-11.973.403-.403 6.968-.017 7.998.471m-6.183.349c-.362.362-.478 1.171-.41 2.877.081 2.062.045 2.034 2.644 2.034h2.128l.676-.542c1.482-1.187 1.051-3.673-.702-4.054-.287-.062-.669-.216-.85-.342-.482-.335-3.144-.315-3.486.027m-70.685.444c-4.451 2.529-5.26 10.546-1.433 14.19 2.461 2.343 6.557 3.379 8.993 2.273.399-.181.814-.329.922-.329.77 0 3.146-2.108 4.228-3.75.423-.642.943-1.379 1.155-1.638s.385-.583.385-.72c0-.136.169-.487.375-.778.434-.612.686-1.003 1.088-1.682 1.495-2.527 4.475-3.695 6.306-2.473 2.842 1.896 2.833 5.111-.022 8.139-.803.851-.78 1.385.086 1.985.367.254.667.511.667.57 0 .185.951.68 1.307.68.505 0 3.36-3.641 3.36-4.285 0-.126.165-.544.366-.93.586-1.121.542-3.611-.094-5.318-1.566-4.208-6.645-6.121-11.336-4.27-1.552.612-3.733 2.887-5.096 5.317-1.348 2.401-2.582 4.257-3.174 4.771-2.363 2.053-5.587 1.499-7.414-1.273-.67-1.016-.76-3.897-.149-4.762.194-.275.4-.65.457-.833.057-.184.555-.821 1.106-1.417s.964-1.183.918-1.305-.084-.295-.084-.385c0-.328-2.065-1.987-2.455-1.972-.071.003-.279.091-.462.195m74.666.082c1.505.317 2.129 2.159 1.104 3.258l-.647.693-1.597.07c-2.738.12-2.943-.029-2.943-2.148 0-2.228.755-2.574 4.083-1.873m-73.058.854c.151.181.378.393.504.472.517.323.66 1.037.259 1.302-.412.273-1.205 1.262-1.975 2.462l-.506.788.055 2.161c.051 1.989.085 2.189.43 2.51.206.192.375.418.375.502 0 .746 2.829 2.324 4.167 2.324 1.317 0 4.166-1.576 4.166-2.304 0-.074.188-.352.417-.618.229-.267.416-.573.416-.68.001-.108.188-.419.417-.691.23-.272.417-.546.417-.607 0-.062.188-.358.417-.659.229-.3.416-.622.416-.715 0-.094.207-.436.459-.76.252-.325.608-.838.791-1.14.184-.303.409-.67.5-.816.279-.446 1.357-1.5 1.533-1.5.091 0 .302-.151.469-.335s.647-.439 1.067-.566c.421-.128.99-.351 1.265-.498.702-.373 3.889-.377 4.608-.005.28.145.828.36 1.219.477.792.239 1.008.402 2.488 1.875.973.969 1.054 1.11 1.339 2.333.166.716.381 1.4.477 1.52.276.344.171 1.721-.204 2.673-.189.48-.344 1.046-.344 1.26 0 .213-.139.567-.31.785-.17.219-.437.645-.592.948s-.41.684-.565.846c-.156.162-.54.608-.854.991-.69.841-1.493.968-1.926.307-.14-.214-.442-.489-.671-.612-.57-.305-.567-1.081.005-1.531.231-.182.539-.568.686-.858.146-.29.401-.677.565-.86s.388-.671.497-1.083c.109-.413.272-.842.364-.953.091-.112.132-.599.09-1.083-.376-4.343-4.896-5.781-8.032-2.555-.616.635-1.756 2.277-1.757 2.531 0 .105-.105.231-.233.28s-.327.376-.441.726-.366.839-.558 1.085c-.807 1.03-1.435 1.926-1.435 2.049 0 .072-.168.302-.375.509-.206.208-.664.686-1.017 1.061-.353.376-.746.683-.875.683-.128 0-.389.157-.581.348-1.242 1.243-7.333 1.25-8.663.01-.212-.197-.479-.358-.594-.358-.267 0-2.395-2.119-2.395-2.384 0-.11-.182-.411-.405-.67-.823-.957-.847-6.574-.032-7.749.24-.347.437-.711.437-.808 0-.182.642-1.079 1.422-1.988.244-.283.492-.585.552-.671.437-.622 1.428-.507 2.051.239m61.631 6.419c.083.626.268 1.268.412 1.428.144.159.35.547.457.861.371 1.083 2.874 3.762 3.675 3.932.248.053.577.236.731.407.155.171.553.361.884.423s.893.263 1.248.448c.94.488 3.673.477 4.854-.02.458-.193 1.149-.432 1.535-.53.385-.099.747-.253.803-.344s.353-.27.66-.398.642-.39.744-.581c.103-.191.278-.347.39-.347.326 0 2.177-2.215 2.368-2.834.071-.229.265-.59.431-.803s.347-.738.401-1.167c.236-1.856.247-1.887.636-1.832.557.08.203 3.343-.418 3.849-.136.112-.349.458-.471.769-.24.609-.417.835-1.626 2.072-1.063 1.088-1.285 1.279-1.486 1.279-.094 0-.454.225-.8.5s-.744.5-.884.5c-.139 0-.56.178-.935.396-1.206.701-6.776.749-7.56.064-.158-.138-.588-.347-.955-.463-.366-.117-.878-.389-1.137-.604-.26-.216-.539-.393-.622-.393-.13 0-1.792-1.642-2.527-2.497-.136-.157-.335-.538-.442-.846s-.339-.713-.515-.9c-.185-.197-.39-.776-.486-1.373-.091-.568-.246-1.182-.343-1.364-.241-.449-.23-.516.183-1.187l.359-.583.144.5c.079.275.21 1.012.292 1.638" fill="#849ccc"/><path d="m16.79 6.181c-.161.093-.442.463-.625.821-.33.648-.332 1.062-.332 70.369v69.717l.355.664c.194.366.438.72.541.787.51.333 80.753.14 80.932-.195.371-.693.225-38.471-.15-38.671-.217-.117-6.547-.173-19.333-.173h-19.011v-51.38c0-46.232-.026-51.416-.26-51.75l-.259-.37-20.782.005c-13.859.003-20.88.062-21.076.176m99.303.189c-.32.457-.406 141.378-.087 141.974.27.504 80.895.508 81.517.004l.394-.319.046-18.723c.026-10.297.007-18.884-.041-19.081-.175-.722-.256-.725-19.947-.725h-18.808v-50.923c0-50.622-.002-50.927-.334-51.578-.539-1.057.725-.999-21.729-.999h-20.752zm74.441-.195c-.891.357-.867-.181-.867 19.788 0 15.689.035 18.522.236 18.797.23.314.611.326 13.209.407l12.971.083.084 51.39.083 51.389.393.319c.419.339 41.957.514 42.485.179.523-.332.539-1.811.539-52.315v-51.039l12.93-.045c12.58-.043 12.936-.053 13.166-.368.201-.275.237-3.107.237-18.797 0-20.12.032-19.436-.919-19.797-.572-.218-94.005-.209-94.547.009m-131.846.434c.192.232.242 8.437.312 51.625l.083 51.349 19.067.043c13.754.03 19.13.094 19.292.228.32.266.336 37.765.016 38.199-.195.264-2.759.28-40.375.24l-40.166-.043-.292-.583c-.349-.7-.466-139.51-.117-140.448.347-.936-.876-.886 21.337-.886 18.972 0 20.632.022 20.843.276m99.305-.113c.686.368.674-.614.674 52.094 0 46.237.024 50.884.263 50.976.145.055 8.7.101 19.011.101 18.89 0 19.226.009 19.598.566.067.101.124 8.457.125 18.57.003 18.968.008 18.812-.65 19.317-.488.374-80.497.297-80.782-.078-.363-.479-.336-140.819.027-141.338l.26-.371h20.585c13.108 0 20.695.06 20.889.163m126.726.031c.802.427.77-.372.776 19.405l.005 18.681-.425.194c-.31.141-3.783.193-12.883.193-9.468 0-12.507.048-12.659.2-.154.155-.2 11.778-.2 51.301 0 43.869-.033 51.148-.236 51.425-.232.317-.665.325-20.976.368l-20.738.043-.442-.441-.441-.441v-51.055c0-50.306-.005-51.057-.322-51.227-.214-.115-4.5-.173-12.743-.173-9.07 0-12.534-.052-12.844-.193l-.424-.194.005-18.681c.006-19.678-.022-18.958.745-19.397.484-.278 93.281-.285 93.802-.008m15.835.426c-.291.036-.629.186-.75.332-.314.378-.307 3.725.008 4.106.393.474 42.174.418 42.604-.057.793-.876.428-3.881-.524-4.315-.388-.176-39.95-.24-41.338-.066m41.434.653c.461.586.51 3.103.07 3.589-.395.436-41.233.481-41.854.046-.438-.307-.553-3.07-.151-3.6.331-.435.006-.428 21.31-.452l20.279-.022zm-32.071 9.314c-.459.226-1.034.411-1.279.412s-.658.177-.917.393c-.259.215-.675.441-.925.502-.249.061-.588.255-.752.431s-.504.398-.755.494c-.25.095-.456.282-.456.416s-.163.295-.364.358c-.419.134-2.302 1.925-2.302 2.191 0 .098-.188.301-.417.451s-.417.384-.417.52-.186.41-.414.608-.464.626-.525.951-.247.706-.414.847c-.187.158-.365.651-.464 1.287-.088.567-.297 1.238-.463 1.492-.495.754-.444 4.876.072 5.857.206.393.375.939.375 1.214 0 .584.413 1.656.638 1.656.086 0 .242.341.346.757.105.416.295.796.422.845.126.049.322.311.435.583s.344.569.515.661c.171.091.311.277.311.414s.187.32.416.407c.23.087.417.274.417.416s.204.35.453.462c.397.18.213.215-1.514.288-2.43.103-2.439.111-2.439 2.204 0 3.08-1.659 2.796 16.357 2.796 16.923 0 14.976.346 14.976-2.66 0-2.422.094-2.336-2.53-2.35-1.362-.008-1.777-.055-1.492-.169.497-.199 2.356-2.085 2.356-2.39 0-.126.116-.273.257-.327.142-.055.362-.35.491-.656.128-.307.343-.649.477-.761.135-.112.339-.593.453-1.07s.338-1.054.498-1.283c.609-.875.581-7.409-.034-8.025-.168-.167-.352-.603-.411-.969-.058-.365-.284-.906-.502-1.201s-.396-.638-.396-.762-.182-.407-.404-.629-.454-.563-.516-.757c-.122-.386-2.629-2.991-2.878-2.991-.084 0-.356-.187-.603-.416s-.517-.417-.6-.417-.338-.187-.567-.417c-.229-.229-.566-.416-.749-.416s-.526-.18-.762-.399c-.25-.231-.743-.445-1.176-.51-.41-.061-.745-.173-.745-.248 0-.68-9.725-.758-11.083-.09m9.755.002c.501.141 1.297.354 1.769.474.471.12 1.063.38 1.314.578s.54.361.642.362c.205.004 1.446.784 2.103 1.322 1.459 1.195 1.821 1.543 2.7 2.592.537.642 1.086 1.285 1.22 1.429.134.145.33.52.435.834.106.313.299.694.429.845.131.151.34.639.466 1.084.126.444.353 1.145.505 1.558.51 1.38.388 5.232-.223 7.083-.835 2.529-2.967 5.669-4.353 6.41-.667.357-.16.507 1.714.507 1.235 0 1.942.068 2.074.2.251.251.273 3.352.027 3.811-.168.315-.512.322-15.083.322-17.513 0-15.578.289-15.578-2.323 0-1.989-.097-1.9 2.167-1.981 2.085-.074 2.215-.155 1.419-.886-.987-.905-2.081-2.257-2.084-2.576-.001-.1-.147-.314-.326-.475-.178-.161-.37-.507-.428-.768-.057-.261-.252-.663-.433-.894-1.103-1.401-1.18-9.164-.103-10.398.135-.155.34-.582.454-.949.115-.366.34-.816.501-1 .16-.183.388-.52.506-.75.117-.229.352-.514.52-.634.169-.12.307-.296.307-.392 0-.32 2.796-2.771 3.856-3.379 1.437-.826 2.638-1.4 3.158-1.51.314-.066.795-.219 1.07-.341.803-.355.991-.371 4.755-.391 2.765-.015 3.798.039 4.5.236m-5.688 3.815c-.054.055-.766.246-1.583.426-.816.179-1.781.478-2.145.665-.363.186-.763.339-.89.339-.52 0-3.59 2.671-4.131 3.594-.238.406-.496.739-.573.739s-.187.169-.245.375-.305.825-.549 1.375c-.674 1.516-.667 5.203.012 6.599.249.513.453 1.001.454 1.084 0 .083.3.563.668 1.067.367.504.822 1.157 1.012 1.452.308.478.97 1.027 2.588 2.148.286.198.811.455 1.167.572s.948.37 1.314.562c1.035.542 7.155.531 8.194-.015.381-.201 1.009-.45 1.394-.554.386-.103.857-.333 1.047-.51.189-.177.415-.322.5-.322.157 0 .975-.653 1.841-1.468.637-.601 1.941-2.321 1.941-2.561 0-.105.206-.535.458-.956 1.011-1.687.639-6.802-.644-8.848-.086-.137-.286-.464-.444-.726-.435-.722-2.21-2.434-2.881-2.778-.327-.168-.693-.423-.812-.567-.12-.144-.305-.262-.412-.262s-.492-.155-.855-.345c-1.174-.612-6.075-1.44-6.426-1.085m4.795.748c.382.073.812.249.955.392.143.142.562.31.932.373.407.069.739.239.842.432.094.175.273.318.399.318.56 0 2.666 1.973 3.167 2.967.152.303.378.589.502.636.123.048.276.363.338.7.062.338.276.788.474 1.002.667.716.632 5.737-.045 6.518-.175.201-.367.66-.428 1.021s-.178.656-.261.656c-.082 0-.336.294-.563.654-.357.566-.893 1.135-2.525 2.68-.193.183-.42.333-.503.333-.084 0-.414.177-.734.395-.32.217-.908.45-1.306.517-.399.068-.886.284-1.082.48-.567.567-6.787.551-7.512-.019-.263-.208-.766-.423-1.116-.479-.351-.056-.879-.28-1.174-.498-.296-.218-.621-.396-.725-.396-.103 0-.344-.169-.535-.375-.191-.207-.613-.563-.939-.792s-.677-.616-.78-.859-.331-.48-.507-.526c-.182-.048-.32-.229-.32-.42 0-.185-.181-.551-.402-.815-.222-.263-.455-.757-.519-1.097-.064-.341-.271-.816-.46-1.057-.527-.669-.522-4.823.006-5.351.201-.2.402-.687.469-1.133.077-.513.253-.901.512-1.126.217-.188.394-.417.394-.507 0-.174.547-.786 1.486-1.662.312-.292.784-.737 1.047-.989s.584-.458.714-.458c.129 0 .335-.144.458-.319s.521-.37.884-.432c.364-.063.862-.255 1.107-.427.83-.583 5.4-.782 7.75-.337m-18.234 32.299c-.773.149-1.045.789-1.045 2.463 0 2.073.017 2.086 2.561 2.086h1.951l-1.339 1.338c-.737.735-1.34 1.399-1.34 1.474s-.185.352-.411.615c-.226.264-.458.693-.516.954-.057.261-.208.515-.335.564-.252.096-.569 1.055-.57 1.724-.001.231-.17.718-.376 1.084-.532.943-.569 5.218-.051 6.005.179.271.379.894.447 1.386.07.512.261 1.045.449 1.25.18.196.38.607.445.914.065.306.298.713.518.905.22.191.4.433.4.537 0 .105.188.353.417.553.229.199.417.421.417.492 0 .072.305.429.678.793.374.364.837.831 1.03 1.037.194.207.424.375.513.375.153 0 .305.127 1.307 1.091.244.236.718.504 1.052.597.334.092.745.305.913.472.168.168.63.36 1.028.427s.804.233.902.368c.237.323 1.36.529 2.931.538.92.005 1.329.076 1.479.257.279.336 1.985.34 2.426.006.295-.223.22-.246-.843-.255-3.037-.025-6.864-.802-7.748-1.574-.138-.122-.437-.277-.664-.347-.836-.255-1.97-1.133-3.814-2.953-1.604-1.582-1.857-1.86-1.857-2.033 0-.08-.177-.378-.393-.661-.216-.284-.449-.703-.519-.933-.069-.229-.28-.671-.468-.982-1.502-2.478-.865-11.023.903-12.115.092-.057.218-.235.28-.395.262-.675 1.938-2.524 2.798-3.087.67-.439.258-.561-1.944-.576-2.352-.015-2.35-.014-2.289-2.01.046-1.491.071-1.587.465-1.786.774-.391 41.369-.303 41.725.089.349.387.405 3.259.067 3.477-.115.075-3.633.173-7.82.219-4.186.045-7.655.128-7.71.182-.054.055.464.672 1.153 1.372s1.252 1.343 1.252 1.43.113.272.251.41c.139.138.403.575.588.97.185.396.442.907.572 1.136.24.423.628 1.541.954 2.75.334 1.234.219 5.039-.182 6.048-.192.484-.35 1.018-.35 1.185 0 .296-1.117 2.603-1.475 3.046-1.035 1.281-2.23 2.638-2.324 2.641-.065.001-.5.358-.967.791-.467.434-1.104.937-1.416 1.118-1.564.907-2.932 1.585-3.202 1.586-.165.001-.633.153-1.04.338-.406.185-1.396.406-2.199.49l-1.46.154 1.885-.054c1.611-.046 1.938-.103 2.25-.39.201-.184.702-.389 1.115-.454.791-.126 1.955-.746 2.581-1.374.206-.207.48-.375.609-.375.288 0 1.152-.724 2.619-2.194 1.023-1.026 1.336-1.432 2.03-2.635.141-.244.422-.655.625-.913.203-.259.369-.621.369-.806s.201-.757.447-1.27c.633-1.322.697-7.347.087-8.173-.198-.268-.43-.799-.516-1.181s-.303-.831-.483-.998c-.179-.167-.377-.577-.44-.909-.062-.333-.224-.648-.36-.7s-.354-.292-.484-.533-.615-.84-1.077-1.331-.84-.96-.84-1.042c0-.085 3.19-.149 7.471-.149h7.471l.362-.385c.652-.694.532-2.911-.199-3.686l-.561-.595-20.397.022c-11.219.013-20.565.055-20.769.095m12.498 4.4c-.664.077-1.377.248-1.584.38-.206.132-.713.338-1.126.458-.412.12-1.004.389-1.315.598-.31.209-.639.38-.73.38-.607 0-3.804 3.886-4.044 4.918-.065.274-.238.686-.386.915-.329.51-.486 4.124-.218 5.011.609 2.014 1.576 3.809 2.643 4.906.71.729 1.728 1.583 1.888 1.583.076 0 .238.096.359.213.455.441 2.753 1.415 3.585 1.52.476.06 1.13.22 1.453.355.812.339 2.443.303 3.932-.088.688-.18 1.418-.329 1.623-.33.319-.003 1.92-.707 2.71-1.192.138-.085.465-.283.727-.441.449-.27 2.33-2.07 2.992-2.863.166-.198.441-.686.611-1.082.17-.397.384-.768.475-.824.953-.589.745-6.888-.271-8.179-.202-.257-.367-.553-.367-.658 0-.206-.426-.791-1.292-1.773-.298-.338-.541-.699-.541-.803 0-.103-.065-.188-.144-.188-.078 0-.472-.262-.875-.582-.402-.32-.815-.582-.917-.583s-.368-.144-.589-.319c-.222-.174-.732-.406-1.133-.514-.401-.107-.892-.303-1.091-.433-.75-.492-3.851-.679-6.375-.385m5.839.486c.235.184.773.4 1.196.479.422.079.896.256 1.053.394s.473.305.702.372c.476.139.796.408 2.275 1.912.582.592 1.059 1.171 1.059 1.286s.15.289.333.387.333.315.333.483c0 .167.207.596.459.952.706 1 .806 6.415.135 7.383-.235.339-.427.73-.427.869s-.225.505-.5.813-.5.657-.5.776-.187.339-.417.489c-.229.15-.416.379-.416.508 0 .13-.179.303-.398.386-.219.084-.59.344-.826.58-.235.235-.532.428-.66.428-.127 0-.369.152-.538.338-.168.187-.632.421-1.031.521-.399.101-.794.312-.879.47-.42.785-7.803.768-8.815-.02-.218-.169-.706-.391-1.083-.492-.378-.101-.821-.326-.985-.5-.164-.175-.398-.317-.519-.317s-.723-.507-1.337-1.125c-1.665-1.679-1.763-1.788-1.763-1.984 0-.099-.157-.38-.349-.624s-.457-.908-.59-1.474c-.132-.567-.35-1.152-.484-1.3-.398-.441-.341-3.566.075-4.095.175-.223.368-.772.43-1.221.064-.46.246-.938.417-1.093.167-.151.402-.513.521-.805.12-.291.389-.666.599-.833s.381-.402.381-.522.156-.259.346-.309.384-.227.43-.395c.096-.348.822-.894 1.849-1.393.39-.188.709-.405.709-.48 0-.076.465-.229 1.034-.341s1.217-.347 1.44-.522c.63-.495 6.107-.48 6.741.019m-4.171 29.519c-.108.108-1.181.25-2.477.33-1.881.115-2.349.196-2.636.455-.191.173-.648.36-1.015.416-.366.055-.782.241-.923.413s-.535.366-.876.43c-.389.073-.72.268-.888.525-.147.225-.405.409-.572.409s-.353.078-.412.173c-.058.095-.394.355-.744.576-.856.54-2.612 2.38-2.864 3.001-.112.275-.336.596-.497.713-.162.117-.343.473-.402.791-.06.319-.179.579-.265.579-.231 0-.64 1.075-.64 1.683 0 .29-.169.799-.375 1.131-.533.857-.572 5.909-.052 6.853.176.32.377.989.447 1.486.069.497.277 1.108.462 1.358.185.251.387.657.449.902.061.246.218.488.347.537.129.05.348.363.486.695.275.661.322.717 2.087 2.478.665.664 1.364 1.255 1.554 1.315.19.059.557.285.816.501.259.217.574.394.7.394s.289.102.362.226c.614 1.04 2.884.611 2.884-.545 0-.183.193-.513.429-.732.51-.473.739-1.625.381-1.922-.891-.739-1.299-1.027-1.454-1.027-.098 0-.434-.225-.748-.5-.313-.275-.621-.5-.685-.5-.163 0-1.423-1.33-1.423-1.502 0-.078-.139-.186-.308-.24-.176-.055-.393-.381-.506-.758-.109-.364-.335-.734-.503-.824-.19-.102-.34-.425-.398-.862-.052-.384-.261-.924-.466-1.201-.498-.674-.582-5.041-.105-5.517.152-.153.368-.593.48-.978.111-.386.381-.926.599-1.201.897-1.131 1.373-1.804 1.373-1.94 0-.079.101-.143.225-.143.123 0 .367-.158.541-.351.175-.193.59-.49.922-.66.333-.17.645-.414.694-.542s.379-.28.733-.336c.688-.11 1.374-.511 1.19-.696-.114-.114-1.757.647-2.801 1.299-1.167.727-3.215 3.037-3.533 3.986-.102.302-.285.667-.408.81-.695.808-.68 5.405.023 6.902.216.461.442 1.038.502 1.284.06.245.252.575.427.734.175.158.319.375.319.48 0 .106.543.738 1.208 1.403 1.524 1.527 1.59 1.583 2.276 1.933.312.159.65.354.75.434 1.218.967 1.158.863.86 1.492-1.175 2.484-1.87 3.025-2.907 2.26-.299-.221-.763-.492-1.032-.604-.269-.111-.489-.256-.489-.322s-.193-.207-.429-.315c-1.146-.522-4.071-3.466-4.071-4.098 0-.115-.147-.342-.327-.504-.18-.163-.416-.568-.525-.901s-.295-.755-.413-.938c-1.108-1.722-1.095-10.024.019-11.254.144-.16.334-.551.422-.869.088-.319.309-.751.492-.962s.332-.445.332-.521c0-.29 2.285-2.662 3-3.114.23-.146.529-.363.667-.485.894-.788 3.109-1.912 5-2.535 2.298-.759 9.068-.845 10.176-.131.224.145.707.314 1.074.376.367.063.929.286 1.25.496s.771.437 1 .505c.229.067.629.3.888.516.259.217.539.394.623.394.486 0 3.989 3.209 3.989 3.655 0 .098.131.311.292.472.405.409 1.205 1.975 1.468 2.873.12.413.345 1.088.499 1.5.961 2.567-.155 9.198-1.88 11.167-.12.138-.536.66-.924 1.162-1.018 1.316-2.331 2.459-3.58 3.115-.298.157-.542.338-.542.402 0 .065-.312.243-.694.396s-.88.423-1.106.601-.586.324-.799.324-.972.187-1.686.415c-1.033.329-1.649.415-3.017.416-2.671.004-2.364 1.609-2.364-12.388 0-9.38-.046-12.107-.209-12.32-.193-.253-.338-.25-1.958.042l-1.75.316 1.833-.032 1.834-.032.042 12.067c.032 9.007.093 12.128.241 12.306.354.426 5.197.225 6.048-.251.365-.205.898-.372 1.184-.372.316 0 .687-.155.946-.396.235-.217.704-.447 1.043-.511.393-.074.645-.225.696-.42.043-.167.285-.345.536-.396 1.023-.204 4.572-3.861 4.786-4.932.058-.288.239-.595.402-.683.178-.095.372-.508.484-1.029.102-.478.309-1.006.46-1.172.649-.718.644-8.044-.006-8.763-.153-.169-.345-.662-.426-1.096s-.306-.958-.5-1.165c-.194-.206-.353-.473-.353-.593 0-.119-.225-.473-.5-.786-.275-.314-.5-.649-.5-.746 0-.383-3.301-3.312-3.732-3.312-.149 0-.432-.187-.631-.415-.198-.228-.616-.462-.929-.521-.312-.058-.746-.285-.964-.502-.219-.219-.594-.396-.842-.396-.245 0-.711-.163-1.034-.363-.486-.301-.911-.377-2.437-.438-1.098-.043-2.03-.166-2.298-.303-.546-.278-1.166-.296-1.422-.04m3.956 15.058v9.747l.423.106c.28.07.747-.036 1.375-.313.523-.231 1.111-.466 1.305-.524s.487-.253.651-.434c.163-.181.369-.329.458-.329.209 0 2.087-1.904 2.548-2.582 1.106-1.63 1.59-3.186 1.763-5.668.045-.655-.397-3.203-.613-3.533-.147-.224-.369-.697-.494-1.051-.248-.702-.378-.87-1.774-2.3-.925-.948-2.727-2.199-3.167-2.2-.124 0-.471-.15-.771-.333s-.806-.333-1.125-.333h-.579zm2.302-8.914c.172 0 .449.151.616.335.166.184.589.421.939.526.357.106.679.325.734.498.054.169.162.308.24.308.215 0 1.502 1.281 1.502 1.495 0 .103.188.375.418.605.23.229.488.73.574 1.112.086.383.291.795.457.916.511.373.449 5.609-.074 6.274-.206.262-.375.643-.375.848 0 .204-.225.654-.5 1s-.5.769-.5.94c0 .17-.073.31-.162.31-.199 0-1.671 1.454-1.671 1.65 0 .078-.22.186-.488.239-.268.054-.625.246-.795.428-.169.182-.63.403-1.025.492-.394.088-.865.296-1.048.461-.607.549-.639.08-.642-9.362-.003-9.981-.03-9.708.926-9.309.309.129.702.234.874.234m-20.279 28.833c-1.004.238-1.107.47-1.107 2.501 0 2.059.092 2.254 1.185 2.508.366.085 9.401.152 20.748.154l20.1.004.608-.591.609-.591v-1.484-1.484l-.609-.592-.608-.591-20.183.017c-11.101.009-20.435.077-20.743.149m41.273.593c.581.407.563 3.44-.022 3.824-.558.365-41.39.305-41.832-.062-.351-.291-.408-3.372-.067-3.651.383-.315.96-.325 21.296-.347 18.086-.021 20.294.005 20.625.236m32.787 2.01c-.183.046-.616.192-.962.324-.345.132-.879.24-1.186.24-.306 0-.736.139-.955.309-.218.17-.679.401-1.023.514-.345.112-.704.348-.798.524s-.275.32-.403.32-.369.173-.536.384-.435.434-.595.495c-.161.061-.292.181-.292.267s-.331.498-.736.914c-.405.417-.788.93-.851 1.141-.064.21-.264.501-.447.645-.191.152-.395.605-.483 1.071-.083.444-.281.952-.442 1.129-.436.482-.442 6.871-.007 7.189.157.114.357.528.445.919.087.391.307.873.488 1.07.18.198.377.52.436.716.125.413 2.649 3.06 2.918 3.06.1 0 .343.186.542.414.198.228.61.462.915.519s.555.175.555.261c0 .228 1.073.639 1.67.639.282 0 .749.122 1.036.271.881.455 3.024.496 4.247.081.57-.193 1.223-.352 1.451-.352.545 0 1.263-.334 1.263-.588 0-.112.296-.25.658-.308.37-.059.757-.247.885-.43.125-.178.429-.401.676-.495.246-.094.448-.246.448-.338s.292-.316.65-.499c.357-.182.823-.612 1.035-.955.212-.344.52-.758.684-.922.163-.164.297-.38.297-.48s.153-.306.339-.458.386-.577.444-.943c.058-.367.262-.879.453-1.139.536-.728.53-6.561-.007-7.445-.195-.321-.403-.854-.462-1.185-.058-.331-.255-.737-.437-.901-.181-.164-.33-.388-.33-.497s-.153-.337-.341-.507c-.187-.17-.501-.594-.697-.943-.196-.348-.399-.633-.451-.633-.052-.001-.389-.263-.749-.584-.361-.321-.75-.583-.866-.583-.115 0-.308-.132-.428-.293-.363-.489-2.248-1.374-2.928-1.375-.343 0-.848-.122-1.123-.27-.501-.27-3.284-.474-4-.293m4.167.636c1.461.242 2.891.791 3.728 1.432.866.663 2.688 2.367 2.688 2.514 0 .073.169.311.375.527 2.26 2.368 2.719 9.483.785 12.157-.179.248-.326.526-.326.618 0 .391-2.334 2.735-3.167 3.18-.197.106-.499.333-.67.504-.172.172-.616.394-.988.494-.371.1-.675.248-.675.329 0 .986-7.534.993-8.786.009-.234-.185-.556-.336-.714-.336-.266 0-.872-.4-2.06-1.363-.95-.77-2.607-2.614-2.607-2.901 0-.105-.14-.37-.312-.588-1.214-1.547-1.817-6.394-1.029-8.283.179-.43.406-1.097.504-1.483.099-.385.259-.75.355-.81.097-.059.31-.419.473-.798.297-.69 2.796-3.44 3.127-3.44.096 0 .276-.123.4-.272 1.092-1.316 5.493-2.053 8.899-1.49m-3.75 1.572c-.138.082-.707.227-1.266.323-1.772.304-4.699 2.348-5.454 3.808-.142.275-.376.597-.519.716-.144.119-.261.332-.261.472s-.203.675-.451 1.188c-.612 1.269-.682 5.064-.111 6.033.187.317.392.782.455 1.033.464 1.848 3.827 4.667 6.19 5.189.55.122 1.356.321 1.791.442.645.18.923.182 1.5.011.39-.116 1.232-.328 1.871-.471 1.491-.333 3.343-1.397 4.382-2.515.604-.651 1.706-2.265 1.706-2.5 0-.103.144-.435.32-.738.774-1.335.788-5.464.023-6.703-.189-.305-.343-.668-.343-.808 0-.303-1.062-1.891-1.61-2.407-.215-.202-.39-.446-.39-.542s-.101-.175-.224-.175-.367-.158-.542-.351c-.174-.193-.617-.503-.984-.689s-.711-.406-.764-.489c-.269-.418-4.817-1.124-5.319-.827m2.991.528c1.157.122 1.666.25 1.917.485.188.175.554.371.813.436.26.064.513.223.563.353.049.129.362.376.695.549.332.173.866.661 1.187 1.084.321.424.745.975.942 1.226.197.25.448.787.558 1.194s.342.921.516 1.143c.48.609.469 4.358-.014 5.15-.182.298-.415.879-.519 1.292-.104.412-.253.75-.332.75s-.288.281-.464.625c-.177.343-.516.793-.754.999-.238.205-.433.445-.433.533s-.265.286-.589.44-.664.42-.756.591c-.091.171-.282.312-.423.312-.14 0-.569.178-.952.397-1.526.87-6.452.866-7.501-.006-.259-.215-.639-.391-.845-.391-.205 0-.531-.169-.724-.375-.193-.207-.843-.863-1.446-1.459s-1.096-1.174-1.097-1.285c0-.112-.143-.28-.318-.373-.192-.103-.363-.435-.431-.835-.061-.365-.265-.858-.452-1.096-.512-.651-.52-4.494-.01-5.142.186-.237.39-.77.452-1.183.074-.493.224-.811.436-.924.178-.096.323-.28.323-.411 0-.26 2.024-2.417 2.268-2.417.084 0 .24-.141.347-.313.107-.171.406-.365.665-.429.258-.064.632-.268.831-.453.256-.24.715-.374 1.583-.465 1.773-.186 2.215-.186 3.964-.002m-6.567 2.271-.591.608.002 5.517c.002 7.413.007 7.432 1.801 7.432 1.471 0 1.599-.223 1.671-2.916.063-2.324.149-2.584.859-2.584 1.187 0 1.497.17 1.61.88.059.369.235.798.39.953s.33.526.39.825c.06.298.297.765.526 1.038.23.273.418.641.418.817 0 .673.579.987 1.821.987 1.236 0 1.797-.286 1.593-.813-.058-.148-.167-.602-.243-1.007-.077-.406-.287-.856-.467-1-.181-.145-.376-.522-.435-.838-.059-.317-.247-.729-.416-.917-.512-.566-.582-1.38-.14-1.615.203-.108.468-.334.588-.503s.324-.307.455-.307c.13 0 .285-.189.343-.42.058-.232.263-.531.455-.666.539-.377.525-3.077-.019-3.583-.203-.189-.369-.451-.369-.583 0-.131-.225-.355-.5-.498-.275-.142-.5-.324-.5-.404 0-.241-.993-.512-1.9-.518-.467-.003-1.037-.113-1.266-.244-.31-.177-1.069-.24-2.951-.244l-2.533-.006zm7.183.056c.812.105 1.39.29 1.815.578.343.233.685.423.76.423.317 0 .869 1.614.885 2.588.023 1.414-.383 2.218-1.6 3.174-.724.569-.958.85-.876 1.049.061.15.186.535.277.856.09.321.255.696.366.833.338.419 1.234 2.387 1.314 2.885.101.626-.257.949-1.052.949-1.332 0-1.581-.323-3.426-4.445-.509-1.137-.861-1.389-1.94-1.389-1.192 0-1.297.22-1.299 2.734-.003 2.641-.13 2.997-1.085 3.06-1.365.089-1.404-.109-1.409-7.132-.005-7.025-.367-6.33 3.297-6.323 1.53.003 3.318.075 3.973.16m-75.781 1.358c-.409.274-.797.644-.863.821-.065.177-.237.322-.38.322s-.306.132-.363.292c-.056.16-.244.442-.417.625-.66.697-1.339 1.944-1.429 2.625-.052.39-.251.921-.443 1.181-.537.729-.519 4.253.027 5.13.206.332.375.804.375 1.05 0 .253.18.626.417.862.229.23.416.485.416.567 0 .195 2.14 2.335 2.335 2.335.083 0 .338.188.567.417s.596.416.815.416c.22 0 .57.149.779.33.785.68 6.029.733 6.649.066.181-.194.597-.404.924-.465.335-.063.67-.254.769-.438.096-.179.28-.326.409-.326.286 0 2.42-2.104 2.42-2.386 0-.11.15-.294.333-.409.184-.114.334-.314.334-.444 0-.129.182-.452.406-.718.223-.265.454-.678.515-.917.06-.239.249-.562.421-.717.171-.156.396-.537.498-.847.103-.311.33-.642.506-.736s.32-.281.32-.415c0-.316 1.926-2.244 2.241-2.244.132 0 .353-.161.49-.357.365-.521 2.071-.548 2.63-.04.214.194.596.402.848.461.252.06.458.216.458.346 0 .131.169.355.375.5.68.475.66 3.623-.028 4.489-.283.356-.514.746-.514.868 0 .121-.15.301-.333.399s-.333.286-.333.417-.169.327-.375.436c-.776.408-.865 2.147-.11 2.147.094 0 .511.346.928.768 1.216 1.234 1.755 1.286 2.703.262 1.234-1.331 1.555-1.747 1.721-2.222.086-.246.259-.487.386-.536.126-.048.315-.41.42-.805.104-.394.324-.867.487-1.05.67-.752.614-5.394-.076-6.224-.202-.243-.415-.639-.473-.879-.139-.569-2.336-2.751-2.914-2.894-.246-.061-.622-.274-.835-.474-.511-.477-6.455-.645-7.196-.203-.229.137-.679.372-1 .522-.591.278-.725.388-1.916 1.566-1.172 1.159-2.182 2.465-2.505 3.238-.137.329-.316.598-.398.598-.081 0-.228.231-.327.512-.098.282-.368.738-.599 1.013-.232.275-.421.604-.421.73 0 .127-.188.417-.417.647-.229.229-.417.523-.417.653 0 .131-.41.575-.911.988-2.073 1.706-5.552 1.002-6.589-1.335-.173-.389-.393-.708-.49-.708-.295 0-.228-2.75.073-2.999.137-.114.341-.515.454-.891.143-.479.568-1.045 1.417-1.892.667-.665 1.213-1.3 1.213-1.413 0-.39-.861-1.442-1.262-1.543-.223-.056-.405-.217-.405-.357 0-.141-.225-.334-.5-.43s-.5-.239-.5-.319c0-.459-.629-.443-1.34.034m2.394 1.06c.349.275.767.769.929 1.098l.294.598-.998.983c-.55.541-1.143 1.285-1.318 1.652-.176.368-.428.857-.562 1.086-.443.76-.245 3.432.316 4.25 1.053 1.537 2.026 2.183 3.808 2.53 1.37.266 3.401-.95 4.502-2.697.289-.458.691-1.096.893-1.417.203-.321.573-.921.823-1.333 1.498-2.474 1.969-3.13 2.926-4.074.806-.796 1.768-1.593 1.923-1.593.07 0 .538-.194 1.039-.431 1.39-.657 5.637-.537 7.045.199 1.265.66 3.66 2.828 3.66 3.312 0 .096.15.456.334.799.76 1.418.79 4.322.061 5.887-.217.468-.397.918-.398 1-.007.307-1.619 2.528-2.555 3.517-.655.694-.666.698-1.223.465-1.675-.7-2.968-2.589-2.094-3.06.16-.086.516-.47.791-.852s.658-.895.851-1.14c.582-.739.872-2.395.666-3.8-.12-.815-1.081-2.229-1.516-2.229-.08 0-.324-.167-.541-.371-1.271-1.194-4.519.164-5.917 2.474-.16.264-.515.818-.789 1.23-.274.413-.583.938-.685 1.167-.103.229-.256.529-.339.667-.292.483-.794 1.255-1.176 1.812-.555.806-2.517 2.854-2.735 2.854-.101 0-.317.148-.48.327-.162.18-.568.414-.9.519-.333.105-.793.312-1.022.46-.512.331-3.804.485-4.675.22-2.383-.727-3.191-1.172-4.533-2.495-.435-.43-.867-.856-.961-.947-2.555-2.495-2.069-8.995.908-12.147.405-.428.76-.836.79-.906s.316-.278.637-.463l.582-.335.502.342c.276.188.787.567 1.137.842m69.071-.556c-.456.166-.458.175-.458 1.745v1.578l.625.262c.477.199.999.242 2.203.179l1.579-.082.546-.632c.986-1.141.347-2.684-1.252-3.022-1.151-.243-2.619-.256-3.243-.028m3.274.279c.792.107.822.132 1.032.844.119.404.314.799.434.878.176.116.167.185-.046.35-.145.113-.355.376-.467.585-.195.367-.27.379-2.152.334l-1.95-.047-.049-1.403c-.062-1.784.26-1.939 3.198-1.541" fill="#5076b6"/><path d="m16.833 6.667c-.183.183-.333.425-.333.537s.117.037.259-.167l.26-.37h20.813 20.812l.11.346c.06.19.151.305.2.255.05-.05-.033-.281-.185-.513l-.277-.422h-20.663c-20.44 0-20.666.004-20.996.334m99.398.088c-.152.232-.235.463-.185.513.049.05.14-.065.2-.255l.11-.346h20.812 20.813l.26.37c.142.204.259.279.259.167 0-.923 1.282-.871-21.329-.871h-20.663zm74.686-.22c-.767.439-.739-.281-.745 19.397l-.005 18.681.424.194c.605.275.746.227.201-.069l-.459-.249v-18.578c0-18.355.004-18.582.334-18.911.331-.332.555-.333 47.166-.333s46.835.001 47.167.333c.329.329.333.556.333 18.911v18.578l-.458.249c-.545.296-.404.344.2.069l.425-.194-.005-18.681c-.006-19.777.026-18.978-.776-19.405-.521-.277-93.318-.27-93.802.008m109.756.754c-.449.084-.829.486-.829.878 0 .173.058.147.188-.084.104-.183.271-.388.37-.455.49-.332 41.413-.14 41.592.194.095.178.173.895.173 1.595 0 .699-.078 1.417-.173 1.594-.169.316-.577.322-20.801.322-22.092 0-21.09.04-21.242-.833-.072-.415-.072-.415-.095.032-.052 1.025-1.311.968 21.322.968 23.848 0 21.155.259 21.155-2.032 0-1.187-.057-1.496-.345-1.862l-.346-.439-20.279.022c-11.154.013-20.464.058-20.69.1m-284.257 70.044c0 38.454.019 54.186.042 34.959.024-19.227.024-50.69 0-69.917-.023-19.227-.042-3.496-.042 34.958m142.167-18.847c0 45.254.029 51.077.25 51.138.185.05.196.03.042-.079-.165-.117-.216-10.61-.25-51.138l-.042-50.99zm153.211-41.701c.207.039.507.038.666-.004.16-.042-.01-.074-.377-.072-.366.002-.497.036-.289.076m-1.219.202c-.087.084-.421.228-.742.318-.326.092-.436.17-.25.176.394.012 1.787-.614 1.409-.634-.142-.008-.33.055-.417.14m9.236.103c.308.134.646.237.75.23.263-.019-.753-.471-1.061-.473-.138 0 .002.109.311.243m-11.728.822c-.868.535-.653.538.35.005.431-.229.678-.417.55-.416-.128 0-.533.185-.9.411m13.75-.291c.138.053.429.234.648.404.218.17.477.308.574.308s-.078-.187-.388-.416c-.311-.229-.682-.411-.824-.404-.225.012-.226.026-.01.108m-15.465 1.175c-.997.632-3.069 2.342-3.354 2.768-.13.194.039.083.377-.247.822-.803 1.994-1.714 3.103-2.411.501-.315.839-.571.75-.569-.088.003-.483.209-.876.459m17.728.07c.452.293 1.083.742 1.404.997.321.256.704.56.85.676.147.116.6.511 1.007.878.406.366.274.216-.295-.334-1.491-1.442-3.205-2.738-3.632-2.747-.085-.001.215.237.666.53m-11.013 1.967c-.55.169-.88.313-.734.32.145.008.633-.098 1.083-.235.906-.274 2.502-.33 3.099-.107.212.079.761.188 1.219.243.768.092.741.075-.333-.218-1.462-.398-3.039-.399-4.334-.003m-3.333 1.009c-.367.174-.571.318-.453.32.275.006 1.37-.45 1.37-.57 0-.144-.198-.09-.917.25m-1.75 1.001c-.956.679-2.429 2.057-2.667 2.494-.075.14.395-.262 1.046-.892.651-.631 1.463-1.323 1.805-1.539s.67-.471.728-.566c.153-.247.107-.222-.912.503m13.658-.456c.13.167.504.441.831.609s1.063.768 1.636 1.333c.573.566 1.042.977 1.042.914 0-.205-2.07-2.096-2.584-2.36-.275-.141-.648-.379-.83-.528-.313-.257-.318-.255-.095.032m6.865.402c.216.296.552.746.745 1 .194.254.409.649.478.878.07.229.226.53.348.67.122.139.296.439.387.666.099.25.169.307.175.144.006-.148-.127-.448-.296-.666-.169-.219-.394-.655-.501-.968-.108-.314-.304-.689-.438-.834-.133-.144-.479-.525-.767-.846-.507-.563-.512-.565-.131-.044m-26.539-.075c-.146.111-.385.433-.531.715-.145.281-.382.609-.525.729-.144.119-.261.292-.261.385s.221-.122.491-.478c.27-.357.651-.855.846-1.107.388-.501.384-.553-.02-.244m23.334 3.091c.09.168.295.412.455.542.18.146.14.03-.106-.305-.438-.598-.602-.709-.349-.237m-25.392.399c-.143.203-.252.56-.242.791.015.366.034.351.145-.119.071-.297.222-.654.337-.792.114-.138.166-.251.114-.251s-.211.167-.354.371m3.948 1.684c-.513 1.176-.473 1.414.049.293.231-.496.399-.959.374-1.029-.026-.07-.216.261-.423.736m22.298-.633c-.003.094.115.343.262.553s.328.583.402.828c.103.341.139.368.149.114.007-.183-.171-.633-.397-1s-.413-.59-.416-.495m4.668-.058c-.004.063.075.326.175.584s.246.957.324 1.552l.143 1.084-.05-1.171c-.037-.896-.555-2.685-.592-2.049m-31.568 1.678c-.143.534-.125 4.337.022 4.567.068.106.123-.963.123-2.375s-.01-2.567-.023-2.567c-.012 0-.067.169-.122.375m4.1.792c0 .321.034.452.076.291.042-.16.042-.423 0-.583s-.076-.029-.076.292m23.693 1.833c0 1.237.027 1.744.059 1.125s.032-1.631 0-2.25-.059-.113-.059 1.125m-23.844-.083c.001.641.031.883.067.538.036-.346.036-.871-.001-1.167s-.066-.013-.066.629m28.321-.167c.002.367.036.497.076.29.04-.208.038-.508-.003-.667-.042-.159-.075.01-.073.377m-.18 1.619c-.016.432-.147 1.133-.291 1.558-.144.424-.23.803-.19.843.172.172.634-1.804.575-2.462l-.064-.725zm-27.99.631c0 .321.034.452.076.292.042-.161.042-.423 0-.584-.042-.16-.076-.029-.076.292m23.479.833c-.016.23-.213.717-.439 1.084-.226.366-.411.768-.411.892-.001.123.227-.209.507-.74.279-.531.476-1.119.439-1.309-.057-.288-.073-.276-.096.073m-23.351-.05c0 .107.191.556.425.997.234.442.374.616.31.387-.148-.535-.735-1.64-.735-1.384m27.18 1.4c-.016.327-1.098 2.398-1.579 3.023-.193.25-.528.7-.744 1l-.392.544.476-.534c1.125-1.262 2.505-3.666 2.341-4.078-.064-.159-.093-.147-.102.045m-30.843.207c-.002.078.146.331.33.565.183.233.331.357.329.276-.005-.195-.654-1.023-.659-.841m4.496.312c0 .139.99 1.63 1.28 1.929.115.118.34.437.501.709.16.271.412.532.559.579.148.047.413.217.589.38.619.567 1.92 1.365 2.369 1.451.437.083.435.079-.048-.123-.857-.36-3.416-2.2-3.416-2.456 0-.077-.244-.44-.542-.808s-.71-.918-.917-1.222c-.206-.304-.375-.502-.375-.439m20.859 1.34c-.629.844-.94 1.17-2.192 2.289-.573.513-.57.513.181-.041.934-.687 3.078-3.123 2.749-3.123-.047 0-.379.393-.738.875m-23.857 1.07c.001.076.263.467.583.87.32.402.582.788.582.857s.127.174.282.234c.258.099.26.082.022-.191-.143-.164-.532-.661-.865-1.103-.333-.443-.605-.743-.604-.667m25.806 2.32c-1.023.846-1.026.85-.796.992.13.08.164.059.093-.057-.063-.101.026-.259.197-.35.34-.182 1.453-1.184 1.315-1.184-.047 0-.411.27-.809.599m-23.974-.094c0 .076.2.295.445.488.646.508.354.653-1.447.716l-1.582.055 1.605.035c1.982.043 2.325-.175 1.498-.947-.286-.267-.519-.423-.519-.347m16.416.742c-.458.225-.718.412-.578.415s.402-.097.583-.221.554-.305.829-.403.387-.183.25-.19c-.138-.006-.625.173-1.084.399m-9.157-.002c.178.135.399.245.491.245.091 0 .021-.11-.157-.245s-.399-.245-.49-.245c-.092 0-.021.11.156.245m1.616.537c.16.042.423.042.583 0s.029-.076-.292-.076-.452.034-.291.076m5.752.003c.207.04.507.038.666-.003.16-.042-.01-.075-.377-.073-.366.002-.497.036-.289.076m10.613.007c1.096.032 1.927.134 2.083.256.229.178.233.167.031-.089-.196-.251-.488-.287-2.083-.257l-1.855.036zm-28.497.219c-.177.286-.019.314.33.059.271-.198.279-.236.052-.236-.15 0-.322.08-.382.177m14.215-.054c.573.033 1.51.033 2.083 0 .573-.032.105-.059-1.041-.059s-1.615.027-1.042.059m-97.917 2.89c.277.161.292 2.777.292 51.222v51.053l.441.441.442.441 20.738-.043c22.809-.048 21.219.023 21.21-.951-.002-.157-.084-.098-.21.15-.328.649-.037.64-21.337.657l-20.299.017-.409-.409-.409-.41v-51.073c0-46.418-.024-51.082-.264-51.174-.407-.156-.519-.11-.195.079m83.637.278c-.007.115.138.359.322.542.515.515 30.051.526 30.327.011.263-.491.206-.632-.087-.215l-.259.371-14.616-.003c-15.456-.002-15.231.006-15.502-.553-.096-.199-.179-.267-.185-.153m.501 8.919c-.221.114-.436.319-.477.456-.043.146.033.111.182-.083.312-.408 41.412-.626 41.898-.223.184.153.227.569.186 1.82-.028.892.005 1.587.073 1.544.293-.181.137-3.162-.179-3.449-.402-.363-40.974-.426-41.683-.065m12.948 3.741c.207.04.507.038.666-.003.16-.042-.01-.075-.377-.073-.366.002-.497.036-.289.076m5.539.21c.23.074.642.254.917.402.275.147.612.268.75.267.137 0-.151-.187-.642-.415-.49-.229-1.015-.409-1.166-.401-.16.008-.1.07.141.147m7.611-.05c-.061.061-.11.192-.108.291.002.123.042.12.125-.008.067-.104.272-.227.456-.272.322-.081.322-.084-.014-.103-.191-.011-.397.031-.459.092m-22.341.45c-.908.672-2.563 2.478-2.753 3.003-.064.177 1.02-1.06 1.277-1.457.173-.268 1.431-1.363 1.807-1.574.172-.096.276-.209.231-.251s-.298.083-.562.279m6.73-.061c-.321.175-.524.322-.453.326.206.011 1.287-.466 1.287-.568 0-.156-.227-.09-.834.242m-1.856.842c-.373.325-.374.334-.028.166.201-.097.412-.251.468-.343.164-.265-.016-.192-.44.177m12.666-.003c.217.18.471.327.565.327.093 0-.02-.15-.253-.333-.548-.431-.829-.426-.312.006m1.274.731c.275.239.65.515.833.613.183.099.108-.016-.167-.254-.275-.239-.65-.514-.833-.613s-.108.016.167.254m-16.379 1.141c-.754.759-1.371 1.43-1.371 1.493s.637-.527 1.416-1.312c1.276-1.284 1.518-1.559 1.372-1.559-.025 0-.663.62-1.417 1.378m21.891-.692c.191.218.585.766.875 1.218.291.451.529.773.529.716 0-.216-.391-.953-.506-.953-.066 0-.214-.228-.33-.507-.115-.278-.368-.588-.562-.689l-.352-.183zm-4.262.556c0 .068.3.464.666.881.367.416.667.822.667.9 0 .079.079.144.175.144s-.035-.278-.292-.617c-.623-.823-1.216-1.461-1.216-1.308m-23.322 1.197c-.19.242-.343.523-.34.625s.088.036.19-.147c.102-.184.299-.465.437-.625.139-.161.209-.292.156-.292s-.253.198-.443.439m28.988.461c0 .073.14.331.31.574.17.244.352.555.403.693.082.216.096.215.108-.01.007-.142-.175-.513-.404-.824-.229-.31-.417-.505-.417-.433m-25.135.76c-.201.271-.365.548-.365.616 0 .067.188-.132.417-.443.229-.31.417-.587.417-.615 0-.137-.136-.009-.469.442m-4.692.411c-.201.415-.331.888-.288 1.05.065.252.08.246.096-.04.011-.185.174-.624.363-.976.188-.353.309-.674.269-.715-.041-.041-.239.266-.44.681m25.994-.293c0 .086.188.411.417.722s.416.516.416.456c0-.059-.187-.384-.416-.722s-.417-.543-.417-.456m-22.138 1.641c-.114.252-.174.492-.132.533.113.114.468-.609.4-.813-.033-.097-.153.029-.268.28m26.978-.222c-.004.063.074.326.173.584s.246.919.326 1.469l.147 1-.07-1.123c-.054-.863-.543-2.501-.576-1.93m-3.723 1.303c.156.74.168 3.325.02 4.417l-.114.833.223-.833c.306-1.149.305-3.332-.002-4.25-.182-.544-.217-.59-.127-.167m-27.849.264c-.137.356-.107 4.246.035 4.605.063.158.114-.874.114-2.291 0-1.418-.011-2.578-.024-2.578s-.07.119-.125.264m4.127 1.903c0 .962.028 1.356.061.875.034-.482.034-1.269 0-1.75-.033-.482-.061-.088-.061.875m28.153.416c.001.459.033.626.072.373.038-.253.037-.628-.003-.833-.039-.205-.071.002-.069.46m-.186 1.881c-.016.392-.141.983-.279 1.312-.137.329-.246.683-.241.786s.159-.181.342-.632c.208-.511.309-1.075.27-1.5l-.062-.68zm-27.848-.047c0 .183.151.595.337.916.332.577.314.474-.116-.666-.137-.364-.22-.458-.221-.25m22.92 1.943c-.395.563-.325.758.085.237.194-.246.314-.486.267-.533s-.205.086-.352.296m-26.752.39c-.008.183.171.633.397 1s.413.59.416.495c.003-.094-.115-.343-.262-.553-.148-.21-.329-.583-.403-.828-.103-.341-.138-.368-.148-.114m4.664-.067c-.007.146.156.408.362.583.372.315.373.314.105-.016-.148-.183-.311-.446-.361-.583-.078-.213-.094-.21-.106.016m21.571.817c-.059.183-.173.333-.256.333-.082 0-.235.169-.34.375-.134.264-.037.212.327-.177.285-.303.519-.622.519-.708 0-.27-.14-.171-.25.177m4.091 1.206c-.974 1.872-1.978 3.108-3.633 4.476-1.77 1.463-2.177 1.734-3.745 2.493-.749.362-1.254.658-1.121.657.219-.001 1.689-.744 3.142-1.586.312-.181.949-.684 1.416-1.118.467-.433.902-.79.967-.791.093-.003 1.463-1.561 2.302-2.618.301-.379 1.355-2.417 1.285-2.486-.038-.039-.314.399-.613.973m-24.694-.456c.1.183.417.596.703.917.286.32.437.433.336.25-.101-.184-.417-.596-.703-.917s-.437-.433-.336-.25m18.787 1.345c-.54.507-1.183 1.025-1.429 1.152-.245.127-.553.363-.684.524-.27.332-.165.284.762-.347.528-.36 2.559-2.25 2.417-2.25-.046 0-.526.415-1.066.921m-23.428-.502c.006.167.825 1.222.826 1.064.001-.051-.186-.346-.416-.657-.229-.311-.414-.494-.41-.407m5.994.618c0 .033.229.28.51.549s.465.377.41.24c-.091-.224-.92-.935-.92-.789m1.576 1.321c.569.444 2.299 1.315 2.404 1.21.039-.039-.372-.271-.913-.517s-1.022-.498-1.067-.561c-.046-.063-.271-.204-.5-.315-.36-.173-.349-.148.076.183m12.292.914c-.476.245-.84.471-.81.501.031.031.499-.169 1.04-.443.542-.275.906-.501.81-.502s-.564.199-1.04.444m-17.535.187c.001.135 1.141 1.232 1.505 1.447.228.134-.044-.157-1.085-1.16-.231-.222-.42-.352-.42-.287m9.667.695c1.257.379 1.638.422.901.101-.284-.123-.846-.27-1.25-.326-.619-.085-.564-.05.349.225m4.833.005c-.596.166-.933.308-.75.317.183.008.821-.129 1.417-.305.595-.176.933-.318.75-.316-.184.002-.821.139-1.417.304m-2.875.454c.298.037.785.037 1.083 0s.054-.067-.541-.067c-.596 0-.84.03-.542.067m-9.678.573c.174.355 1.684 1.395 2.224 1.532l.412.105-.416-.207c-.622-.31-1.886-1.171-2.136-1.457-.192-.218-.202-.215-.084.027m3.03 1.964c.216.188.479.342.583.34.199-.003-.078-.223-.643-.512-.262-.134-.249-.097.06.172m2.19.843c.412.173.937.31 1.166.304.329-.008.347-.025.084-.084-.184-.04-.616-.182-.962-.314-.924-.352-1.165-.274-.288.094m9.416.102-.666.234.652-.079c.359-.043.73-.156.825-.251.22-.221.025-.197-.811.096m-1.541.346c.16.042.423.042.583 0s.029-.076-.292-.076-.452.034-.291.076m-3.5.174c.435.035 1.148.035 1.583 0 .435-.034.079-.062-.792-.062s-1.227.028-.791.062m.166 4.832c.344.036.907.036 1.25 0 .344-.036.063-.065-.625-.065-.687 0-.968.029-.625.065m-4.336.411c-.575.192-1.008.387-.962.433.045.046.403-.038.795-.187.391-.148 1.012-.339 1.378-.424.455-.105.535-.157.25-.163-.229-.006-.887.148-1.461.341m8.579-.205c.385.084.849.232 1.03.33.492.263.646.213.234-.075-.198-.139-.721-.287-1.162-.329l-.803-.078zm-11.534 1.426c-.734.4-1.574.857-1.868 1.015s-.571.381-.615.497.266-.024.69-.31c.425-.286 1.414-.843 2.199-1.237.785-.395 1.314-.712 1.177-.706-.138.007-.85.34-1.583.741m14.354-.572c.286.083.614.264.728.402.115.138.289.25.387.25s-.075-.187-.386-.416-.719-.41-.907-.402c-.237.01-.182.062.178.166m3.901 2.194c1.156.854 2.837 2.494 3.118 3.042.307.598 1.043 1.506 1.043 1.287 0-.086-.187-.358-.416-.605s-.417-.526-.417-.62c0-.413-3.501-3.646-3.949-3.646-.061 0 .218.244.621.542m-22.466 1.28c-.572.544-1.039 1.041-1.039 1.103 0 .063.487-.359 1.083-.937.994-.965 1.164-1.154 1.039-1.154-.024 0-.512.445-1.083.988m9.627-.238c-.504.117-.729.219-.5.227.23.008.752-.063 1.163-.157 1.243-.287 1.171-1.061 1.171 12.456 0 13.144-.05 12.432.864 12.377.12-.007.013-.088-.239-.18l-.459-.168v-11.975c0-14.18.174-13.085-2-12.58m5.778.527c-.297.298-.119 19.723.181 19.71.174-.008.207-.047.083-.098-.163-.066-.208-2.185-.208-9.81v-9.726l.625-.065.625-.066-.598-.028c-.328-.015-.647.022-.708.083m-9.642.614c-.521.289-1.121.661-1.333.827-.292.229-.244.22.197-.037.321-.187.977-.525 1.459-.751.481-.227.875-.454.875-.504 0-.161-.225-.074-1.198.465m11.031-.479c0 .119.952.588 1.194.588.115 0-.084-.15-.444-.334-.704-.359-.75-.374-.75-.254m2.308 1.164c.49.312 1.044.704 1.232.871.335.298.337.297.11-.072-.127-.207-.276-.375-.332-.375s-.431-.224-.835-.497c-.403-.274-.808-.497-.9-.496-.091.001.235.257.725.569m-20.801.299c-.176.298-.39.621-.475.718-.311.358-.551.931-.473 1.124.053.13.086.115.095-.042.014-.26.707-1.358 1.242-1.967.19-.216.245-.375.131-.375-.109 0-.343.244-.52.542m5.493.254c0 .102-.206.31-.458.463-.417.253-1.339 1.241-1.158 1.241.188 0 1.819-1.686 1.723-1.781-.059-.06-.107-.025-.107.077m17.317.996c.205.298.44.541.523.541s.268.225.41.5.335.5.428.5c.193 0 .034-.208-.998-1.302-.524-.556-.629-.625-.363-.239m5.522.241c-.003.064.182.469.411.9s.416.678.416.55c-.001-.235-.818-1.667-.827-1.45m-29.717 1.06c-.162.217-.334.641-.383.942-.087.547-.087.546.151-.078.131-.345.333-.74.448-.879s.18-.281.144-.316c-.036-.034-.198.115-.36.331m4.711.115c-.246.336-.286.452-.106.306.274-.222.687-.847.56-.847-.032 0-.236.243-.454.541m21.26.959c.11.417.732 1.516.738 1.303.001-.063-.189-.476-.423-.917-.234-.442-.376-.615-.315-.386m4.747.469c-.004.121.081.383.189.583.107.201.253.814.323 1.364l.128 1-.051-1.093c-.043-.907-.568-2.558-.589-1.854m-27.078.452c-.155.237-.249.559-.208.714.061.234.077.227.093-.039.011-.176.144-.458.296-.626.153-.168.238-.345.19-.393s-.215.107-.371.344m-4.49 1.12c-.133.494-.103 4.766.036 5.261.06.212.109-.969.109-2.625s-.01-3.011-.023-3.011c-.012 0-.067.169-.122.375m4.103.542c.002.367.036.497.076.29.04-.208.039-.508-.003-.667s-.074.01-.073.377m23.67.417c0 .412.033.581.073.375.039-.207.039-.544 0-.75-.04-.207-.073-.038-.073.375m-23.825 1.5c0 .596.03.839.067.541s.037-.785 0-1.083-.067-.054-.067.542m28.328-.084c.001.459.033.626.072.373.038-.253.037-.628-.003-.833-.039-.205-.071.002-.069.46m-4.37-.166c-.002.275-.038.95-.081 1.5l-.077 1 .132-.935c.073-.514.181-1.013.24-1.11.06-.096.037-.35-.051-.565-.153-.375-.159-.37-.163.11m4.187 2.104c-.017.516-.144 1.208-.282 1.537-.137.329-.246.694-.241.812.005.117.159-.155.341-.605.234-.576.315-1.092.273-1.75l-.06-.932zm-27.99-.104c.002.366.036.497.076.289.04-.207.039-.507-.003-.666-.042-.16-.074.01-.073.377m.302 1.5c0 .091.11.312.245.49s.245.248.245.157c0-.092-.11-.313-.245-.49-.135-.178-.245-.249-.245-.157m22.586.988c-.586 1.238-1.126 2.013-1.975 2.832-.387.374-.81.83-.939 1.013-.237.338 1.908-1.832 2.259-2.286.302-.39 1.24-2.338 1.163-2.416-.039-.038-.267.348-.508.857m-26.581.351c-.009.187.133.631.314.987.182.355.409.887.507 1.182.097.294.342.675.545.847.366.309.367.309.081-.03-.158-.188-.402-.669-.544-1.069-.141-.4-.323-.809-.406-.909-.082-.099-.224-.443-.316-.764-.101-.356-.172-.451-.181-.244m30.568 1.3c-.495 1.02-.496 1.111-.001.314.243-.392.418-.778.388-.857-.029-.079-.204.165-.387.543m-24.992.489c.045.117.249.314.454.439.354.216.353.206-.033-.212-.451-.49-.54-.538-.421-.227m-227.024.247c14.845.033 19.042.088 19.25.25.236.184.24.175.037-.084-.216-.275-1.304-.289-19.25-.25l-19.021.041zm99.782.04c15.71.07 18.98.124 19.208.313.254.211.276 1.724.276 18.716v18.487l-.409.41-.41.409-40.127-.042-40.127-.042-.211-.416c-.116-.229-.21-.305-.208-.167.001.137.102.381.224.542.285.375 80.294.452 80.782.078.658-.505.653-.349.65-19.317-.001-10.113-.058-18.469-.125-18.57-.373-.558-.681-.567-19.653-.526l-18.803.04zm151.651.462c0 .1-.118.3-.262.444s-.184.262-.089.262c.211 0 .582-.657.448-.792-.054-.053-.097-.015-.097.086m-22.75.94c.55.529 1.202 1.068 1.449 1.197.788.412 1.939 1.235 2.025 1.447.059.148.086.15.096.009.007-.108-.193-.351-.445-.54s-.541-.411-.641-.494-.438-.281-.75-.44c-.563-.287-.752-.433-1.619-1.253-.247-.233-.599-.528-.782-.656-.183-.127.117.201.667.73m-5.583.042c-.002.544 2.759 3.396 3.833 3.96.137.072-.013-.076-.334-.329-.867-.683-2.821-2.712-3.182-3.305-.174-.285-.317-.432-.317-.326m27.41.349c-.161.252-.864 1.014-1.561 1.693-1.257 1.226-1.315 1.474-.078.34.857-.786 2.231-2.491 2.007-2.491-.04 0-.206.206-.368.458m-6.462.297c-.613.539-.393.535.248-.005.273-.229.434-.415.358-.412s-.348.191-.606.417m-12.342 2.786-.298.542.346-.393c.298-.34.45-.69.298-.69-.026 0-.182.243-.346.541m-.44.786c0 .293-1.03 1.339-1.318 1.339-.156 0-.538-.187-.849-.416-.31-.229-.636-.417-.724-.417-.087 0 .171.224.574.497.959.649 1.162.632 1.881-.164.541-.599.749-1 .519-1-.046 0-.083.073-.083.161m14.25.351c-.561.359-.484.421.159.128.233-.106.424-.256.424-.333 0-.174.018-.181-.583.205m-1.27.635c-.219.172-.548.351-.731.397-.324.082-.324.085.01.104.189.01.597-.168.908-.398.31-.229.485-.416.388-.416s-.356.141-.575.313m-2.813.881c-.229.095-.792.231-1.25.302-.808.125-.813.129-.167.137.367.004 1.042-.131 1.5-.3s.721-.309.583-.31c-.137-.001-.437.076-.666.171m1.666 6.304c11.23.047 20.511.146 20.625.22.144.093.209.647.209 1.782 0 1.134-.065 1.689-.209 1.781-.114.075-9.395.173-20.625.22l-20.416.085 20.338.04c23.709.047 21.078.312 21.078-2.126 0-2.439 2.631-2.174-21.078-2.127l-20.338.041zm-21.3.202c-.11.11-.2.274-.2.365s.094.045.209-.103c.114-.147.358-.303.541-.346.327-.076.326-.078-.008-.097-.188-.011-.432.071-.542.181m75.509 2.422c.435.035 1.148.035 1.583 0 .435-.034.079-.062-.792-.062s-1.227.028-.791.062m-3.959.729c-.55.27-.82.442-.6.384.588-.157 2.142-.901 1.85-.886-.137.007-.7.233-1.25.502m8.417-.283c1.14.43 1.243.448.667.116-.321-.186-.734-.337-.917-.337-.208.001-.113.084.25.221m-80.162.37c-.008.296.45.597.779.511.24-.062.227-.081-.067-.097-.202-.01-.443-.15-.537-.311-.093-.16-.172-.207-.175-.103m81.855.274c.244.115.619.355.834.533.347.289.344.277-.027-.11-.229-.239-.604-.479-.833-.533-.41-.097-.409-.095.026.11m-6.693.462c-.229.077-.679.216-1 .31-.56.163-.553.166.167.074.412-.054.876-.163 1.03-.244.361-.19 1.741-.191 2.106-.002.154.08.655.189 1.114.243.77.091.745.074-.334-.219-1.226-.334-2.384-.395-3.083-.162m-6.583 1.366c-1.22 1.253-1.917 2.111-1.916 2.358 0 .102.138-.04.305-.315.168-.275.881-1.081 1.585-1.792.704-.71 1.222-1.288 1.153-1.285-.07.003-.577.469-1.127 1.034m15.666.059c.642.633 1.202 1.128 1.246 1.1.106-.069-1.663-1.823-2.079-2.061-.183-.104.192.328.833.961m-12.466-.28c-.765.449-3.391 2.762-2.7 2.378.183-.102.67-.532 1.083-.956.412-.424 1.087-.948 1.5-1.166.935-.493 1.299-.739 1.083-.731-.091.003-.526.217-.966.475m8.883-.172c0 .074.296.269.658.432.361.163.824.474 1.029.692.204.217.436.395.515.395.214 0-.863-.885-1.577-1.296-.344-.197-.625-.298-.625-.223m2.664 1.978c.1.206.243.375.32.375.076 0 .448.461.827 1.026.682 1.015.975 1.189.379.224-.417-.674-1.754-2.098-1.526-1.625m-11.405.245c-.224.321-.254 1.145-.222 6.125l.038 5.755.087-5.867c.055-3.67.152-5.931.259-6.038.1-.1 1.413-.191 3.167-.22l2.995-.05-3.032-.038c-2.965-.037-3.038-.029-3.292.333m13.779-.162c.148.115.547.733.887 1.375.341.642.569.953.507.692-.063-.262-.249-.674-.415-.917-.167-.243-.428-.648-.58-.9-.153-.252-.366-.458-.473-.458-.109 0-.076.091.074.208m-6.402.122c.396.086.967.309 1.27.496.784.485.927.422.185-.082-.364-.247-.943-.452-1.398-.495l-.776-.074zm-11.031 1.363c-.25.382-.333.593-.185.471.252-.209.824-1.164.697-1.164-.032 0-.262.312-.512.693m-64.971.049c-.338.183-.698.516-.8.739-.166.364-.137.354.286-.098.853-.914 1.366-.828 2.911.486.683.581.998 1.797.466 1.797-.192 0-1.83 1.991-1.83 2.223.001.107.145-.042.321-.331s.727-.918 1.223-1.399l.903-.873-.296-.601c-.279-.567-.912-1.161-2.067-1.939l-.501-.338zm62.764.18c-.152.232-.246.452-.209.489s.194-.153.348-.422c.344-.599.242-.649-.139-.067m8.342.003c-.31.248-.306.253.093.125.23-.074 1.033-.134 1.786-.134s1.24-.051 1.083-.113c-.583-.231-2.625-.147-2.962.122m7.534.158c.353.915.262 2.904-.168 3.673-.231.413-.348.707-.261.653.815-.503 1.195-3.154.598-4.159-.164-.275-.24-.35-.169-.167m-7.906 1.696c-.049 2.165.145 2.311 2.908 2.19l1.597-.07.647-.693c.753-.808.795-1.199.226-2.123-.226-.367-.411-.592-.411-.5s.15.392.332.667c.463.699.417 1.098-.214 1.827l-.546.632-1.579.082c-1.198.062-1.727.02-2.197-.177l-.618-.259-.055-1.552-.055-1.553zm11.133-.929c.001.128.15.458.332.733s.341.65.352.833c.015.247.039.264.092.065.04-.147-.119-.627-.353-1.066-.233-.439-.424-.693-.423-.565m-65.084.403c-.459.226-.914.411-1.013.412s-.361.207-.583.458c-.363.41-.366.425-.03.142.395-.333 1.948-1.035 2.792-1.263.461-.124.468-.136.084-.147-.229-.006-.792.173-1.25.398m6.416.08c.774.424 1.066.423.371-.001-.3-.183-.637-.329-.75-.325-.112.003.058.15.379.326m40.783.323c-.155.263-.283.578-.283.7s.155-.066.344-.418c.402-.751.353-.982-.061-.282m20.147.01c.055.23.159.679.232 1 .132.576.133.578.145.084.006-.275-.098-.725-.233-1-.206-.423-.229-.436-.144-.084m-86.132.125c-.14.161-.345.48-.454.709l-.199.416.349-.416c.384-.459.721-1 .621-1-.034 0-.177.131-.317.291m63.983.347c-.416 1.041-.383 4.657.053 5.695.173.412.319.654.324.536.005-.117-.104-.483-.241-.812-.358-.855-.35-4.546.01-5.244.143-.276.232-.587.198-.69-.035-.103-.189.128-.344.515m-37.531-.273c.184.104.389.271.456.37.084.125.123.118.125-.021.002-.111-.142-.28-.32-.375-.438-.235-.678-.21-.261.026m1.182.9c.835.785 1.191 1.015.652.422-.275-.302-.65-.63-.834-.728s-.103.038.182.306m-11.745.421c-.627.626-.774.814-.638.814.027 0 .38-.338.785-.75.405-.413.691-.75.637-.75s-.407.308-.784.686m49.685.147c0 .321.035.452.077.292.041-.161.041-.423 0-.584-.042-.16-.077-.029-.077.292m-66.675.316c-.2.355-.363.742-.363.86s.185-.151.411-.598c.495-.979.461-1.167-.048-.262m85.849.184c0 .412.032.581.072.375s.04-.544 0-.75-.072-.038-.072.375m-55.698.436c.221.286.436.49.477.454.041-.037-.14-.271-.403-.52l-.476-.453zm36.369.564c0 .504.031.71.069.458.039-.252.039-.664 0-.916-.038-.252-.069-.046-.069.458m-50.649-.292c-.536.621-1.309 1.792-1.184 1.792.039 0 .284-.319.544-.708.26-.39.62-.877.801-1.084.181-.206.292-.375.246-.375s-.229.169-.407.375m64.236.561-.743.602.261.543c.144.298.285.481.314.407.029-.075-.037-.304-.147-.509-.181-.337-.13-.432.531-1.004.931-.805.765-.835-.216-.039m-58.899.031c-.924.626-1.806 1.511-2.121 2.129-.144.281-.379.609-.523.729-.143.119-.261.292-.261.385s.225-.114.5-.46.5-.691.5-.767c0-.23 1.204-1.37 1.959-1.854.389-.25.708-.494.708-.542 0-.131-.032-.116-.762.38m3.882-.121c.204.212.413.344.464.293.051-.052-.116-.225-.37-.386l-.464-.293zm-21.358.576c-.156.238-.247.521-.202.63.053.13.085.117.094-.039.007-.13.137-.374.289-.542.153-.168.238-.345.19-.394-.048-.048-.215.107-.371.345m22.405.245c.195.275.432.5.525.5s-.043-.225-.302-.5c-.26-.275-.496-.5-.526-.5-.029 0 .107.225.303.5m4.672-.312c-.003.058.107.374.244.703.138.329.25.801.25 1.048s.047.403.104.346c.165-.165-.094-1.543-.355-1.887-.131-.173-.24-.268-.243-.21m44.578.13c1.076.166 1.336.288 1.551.733.097.201.181.28.187.176.033-.548-.603-.945-1.586-.991l-.986-.046zm-76.145.39c-.135.505-.111 3.469.031 3.827.063.157.114-.724.114-1.958 0-2.438.001-2.416-.145-1.869m74.728-.104c0 .221.045.233.25.063.137-.114.25-.236.25-.271 0-.034-.113-.063-.25-.063s-.25.122-.25.271m-7.291.646c.002.367.036.497.076.29.039-.208.038-.508-.004-.667s-.074.01-.072.377m7.124 2.048c-.091 2.601-.129 2.695-1.104 2.699-.551.003-.807-.2-.942-.747-.076-.31-.083-.308-.101.03-.031.585.429.911 1.208.854.997-.073 1.127-.448 1.069-3.084l-.046-2.133zm-70.441-.798c0 .779.028 1.098.063.708.035-.389.035-1.027 0-1.416-.035-.39-.063-.071-.063.708m10.709-.523c-.265.425-.647 1.035-.85 1.356-.202.321-.601.959-.887 1.417s-.728 1.05-.983 1.316l-.464.482.481-.358c.265-.197.744-.789 1.065-1.316.736-1.209 1.251-2.027 1.812-2.877.243-.368.411-.697.375-.731-.037-.034-.284.286-.549.711m13.013.19c.055.32.097.92.092 1.333-.008.731-.004.737.16.234.126-.388.103-.721-.093-1.334-.183-.575-.23-.644-.159-.233m39.72.05c-.001.23.52 1.151.604 1.067.044-.044-.074-.332-.262-.64s-.342-.501-.342-.427m14.009 1.219c.361.702.666 1.435.676 1.629.017.297.032.305.098.049.076-.294-1-2.688-1.288-2.866-.078-.049.153.486.514 1.188m6.353-.615c-.277.793-.232 1.041.065.358.136-.314.221-.649.189-.745s-.146.078-.254.387m-9.44.012c.117.431 1.067 2.172 1.074 1.969.002-.063-.265-.626-.592-1.25-.328-.625-.545-.948-.482-.719m7.533.191c-.159.277-.289.59-.289.695 0 .106.154-.095.343-.448.408-.761.361-.971-.054-.247m-53.744.309c0 .413.033.582.073.375.039-.206.039-.543 0-.75-.04-.206-.073-.037-.073.375m-13.68.494c-.201.271-.365.548-.365.615 0 .068.188-.131.417-.442s.416-.588.416-.616c0-.136-.135-.008-.468.443m47.804.192c-.001.148.137.448.306.667.17.218.438.673.597 1.009.158.337.411.66.562.718.218.084.206.026-.062-.279-.185-.211-.467-.647-.627-.967-.552-1.104-.773-1.431-.776-1.148m20.875.605c-.205.399-.299.68-.207.624.217-.134.698-1.069.631-1.228-.028-.068-.219.204-.424.604m-83.042-.505c-.004.349.938 1.704 1.437 2.067l.478.347-.444-.412c-.243-.227-.581-.657-.75-.955-.633-1.12-.718-1.244-.721-1.047m80.826.765c-.318.476-.662.921-.765.987-.102.067-.317.329-.477.583-.335.533.614-.397 1.081-1.058.137-.195.391-.553.564-.797.173-.243.283-.474.245-.512s-.33.32-.648.797m-16.122.018c.97 1.46 3.896 3.885 4.255 3.526.04-.04-.366-.295-.902-.566-.911-.461-2.181-1.645-3.436-3.206-.358-.444-.339-.389.083.246m-36.848-.187c-.013.256-.175.759-.358 1.118-.183.36-.332.75-.331.869.001.118.193-.183.427-.668.25-.52.396-1.069.356-1.334l-.069-.45zm-14.275.593c-.827 1.097-1.959 2.859-1.837 2.859.085 0 .728-.923 1.343-1.925.186-.304.48-.708.652-.898s.282-.376.244-.412-.218.133-.402.376m61.813-.052c.057.149.104.301.104.337 0 .481 2.142.741 2.571.312.366-.365.33-.518-.042-.181-.529.478-1.634.363-2.229-.232-.28-.28-.462-.386-.404-.236m6.687.932c-.524.706-1.109 1.314-2.083 2.164-.321.28-.478.454-.349.386.702-.37 3.016-2.731 3.016-3.078 0-.239-.04-.203-.584.528m-59.196-.113c-.167.224-.529.719-.804 1.099-.275.379-.631.761-.791.847-.874.471.419 2.36 2.094 3.06.557.233.568.229 1.223-.465.94-.994 2.549-3.21 2.555-3.52.001-.084-.238.216-.531.667-1.031 1.583-2.475 3.237-2.826 3.237-.356 0-1.307-.495-1.307-.68 0-.059-.3-.316-.667-.57-.862-.598-.889-1.134-.096-1.974.313-.333.798-.943 1.077-1.357.537-.795.588-1.036.073-.344m-26.707-.075c-.004.137.216.58.49.983.273.404.497.79.497.858s.111.166.246.218c.136.052-.019-.283-.343-.745-.325-.461-.656-1.002-.736-1.202-.085-.21-.149-.257-.154-.112m82.374 1.222c-.259.214-.789.565-1.177.78-.389.215-.683.414-.654.444.101.1 1.887-.941 2.191-1.276.41-.454.22-.426-.36.052m-75.077.099c.399.19.935.346 1.19.346s.79-.156 1.19-.346c.731-.348.652-.343-.652.04-.576.17-.814.168-1.25-.007-.929-.373-1.238-.394-.478-.033m60.738-.113c.153.115.397.359.544.542.146.183.211.221.145.083-.194-.399-.607-.833-.795-.833-.095 0-.047.094.106.208m10.952 1.538c-.505.116-1.104.298-1.334.404l-.416.193.416-.092c1.252-.276 2.591-.619 2.652-.681.112-.111-.33-.052-1.318.176m-4.5.249c.595.18 1.196.324 1.333.321.422-.01-.887-.436-1.675-.545-.633-.087-.583-.055.342.224m-71.965.17c.078.26 1.765 1.501 2.042 1.501.089.001-.249-.262-.75-.584s-1.013-.715-1.138-.875c-.162-.206-.206-.218-.154-.042m11.512.285c-.203.211-.308.383-.234.383.163 0 .769-.648.672-.717-.038-.027-.235.123-.438.334m56.745.008c.216.207.52.371.675.365.188-.007.144-.066-.131-.176-.227-.09-.531-.254-.674-.364-.144-.11-.085-.031.13.175m11.781-.275c-.062.101-.348.285-.635.41s-.424.23-.305.234c.321.009 1.2-.477 1.2-.665 0-.215-.12-.206-.26.021m-365.74.257c0 .084.117.319.259.523l.26.37h40.151c44.223 0 40.505.08 40.494-.864-.001-.12-.097-.031-.213.198l-.211.416-40.024.042-40.025.042-.345-.439c-.19-.242-.346-.371-.346-.288m359.542.008c.16.042.423.042.583 0s.029-.076-.292-.076-.452.034-.291.076m-63.525.816c-.311.222-.484.403-.384.403s.392-.185.649-.412c.589-.518.471-.514-.265.009m59.364-.096c.234.184.675.375.98.424.547.089.545.086-.09-.155-.355-.135-.727-.326-.825-.425-.099-.098-.249-.179-.335-.179s.036.151.27.335m-60.964.795c-.353.199-1.088.314-2.5.389l-2 .107 2.083-.037c1.775-.031 2.181-.09 2.744-.396.363-.198.55-.356.416-.353-.134.004-.468.134-.743.29m63.041-.179c.207.04.544.04.75 0 .207-.039.038-.072-.375-.072-.412 0-.581.033-.375.072m3.834 0c.206.04.543.04.75 0 .206-.039.037-.072-.375-.072-.413 0-.582.033-.375.072m-72.292.299c.229.131.529.238.667.238.137 0-.003-.11-.311-.244-.71-.308-.9-.305-.356.006m70.292-.129c.298.037.785.037 1.083 0s.054-.067-.542-.067c-.595 0-.839.03-.541.067" fill="#7494c4"/><path d="m14.5.245c0 .2-.388.254-2.125.292-2.046.045-2.127.06-2.177.413-.045.316-.172.374-.917.417-.805.046-.868.081-.917.508-.05.431-.102.458-.875.458-.766 0-.822.029-.822.417 0 .333-.084.417-.417.417s-.417.083-.417.416c0 .352-.077.417-.5.417-.422 0-.5.065-.5.417 0 .333-.083.416-.416.416-.352 0-.417.078-.417.5 0 .423-.065.5-.417.5-.333 0-.416.084-.416.417s-.084.417-.417.417-.417.083-.417.416c0 .329-.084.417-.399.417-.462 0-.601.272-.601 1.18 0 .586-.043.653-.416.653-.389 0-.417.056-.417.834 0 .629-.061.833-.25.833-.222 0-.25 7.676-.25 68.083 0 59.315.031 68.084.241 68.084.174 0 .256.245.292.875.043.755.1.882.417.927.309.044.374.174.416.833.046.714.09.786.509.834.36.041.458.14.458.458 0 .32.087.406.408.406.368 0 .412.077.458.792.04.613.129.826.398.944.191.084.416.309.5.5.119.269.331.359.945.398.753.048.791.074.791.542 0 .409.068.491.405.491.294 0 .42.103.459.375.045.319.169.382.834.425.659.043.79.108.834.417.045.316.171.373.927.416.803.047.875.084.875.459 0 .399.029.408 1.333.408 1.074 0 1.333.048 1.333.25 0 .222 20.861.25 186.75.25s186.75-.028 186.75-.25c0-.207.306-.25 1.75-.25 1.746 0 1.75-.001 1.75-.408 0-.375.072-.412.875-.459.749-.043.883-.102.926-.407.041-.285.205-.381.811-.472.552-.083.783-.202.843-.434.047-.176.21-.32.365-.32.366 0 .68-.323.68-.7 0-.209.127-.3.417-.3.333 0 .417-.084.417-.417s.083-.417.416-.417c.331 0 .417-.084.417-.405 0-.319.098-.417.458-.459.36-.041.47-.151.511-.511.031-.266.155-.458.296-.458.275 0 .568-.652.568-1.261 0-.322.087-.406.417-.406.394 0 .417-.05.417-.916 0-.867.022-.917.416-.917.408 0 .417-.028.417-1.25 0-1 .05-1.25.25-1.25.222 0 .25-7.481.25-66.333 0-58.002-.031-66.334-.243-66.334-.188 0-.254-.293-.292-1.291-.044-1.187-.078-1.296-.415-1.344-.316-.045-.374-.172-.417-.917-.042-.738-.102-.872-.407-.915-.285-.041-.381-.205-.472-.811-.081-.542-.203-.783-.424-.841-.171-.045-.334-.242-.362-.439-.036-.249-.189-.374-.5-.41-.346-.04-.46-.154-.5-.5-.036-.314-.161-.464-.416-.5-.227-.033-.384-.19-.417-.417-.032-.225-.189-.384-.411-.416-.219-.031-.399-.21-.462-.458-.091-.364-.191-.407-.932-.407-.774 0-.83-.028-.83-.417 0-.328-.085-.417-.399-.417-.28 0-.428-.117-.497-.395-.11-.437-.629-.605-1.875-.605-.666 0-.729-.035-.729-.416v-.417h-1.75c-1.444 0-1.75-.044-1.75-.25 0-.222-20.722-.25-185.5-.25-163.102 0-185.5.03-185.5.245m44.407 6.125c.234.334.26 5.518.26 51.75v51.38h19.011c12.786 0 19.116.056 19.333.173.375.2.521 37.978.15 38.671-.179.335-80.422.528-80.932.195-.103-.067-.347-.421-.541-.787l-.355-.664v-69.717c0-69.307.002-69.721.332-70.369.537-1.05-.747-.991 21.701-.997l20.782-.005zm99.27-.198c1.08.578.99-4.183.99 52.405v50.923h18.808c19.691 0 19.772.003 19.947.725.048.197.067 8.784.041 19.081l-.046 18.723-.394.319c-.622.504-81.247.5-81.517-.004-.319-.596-.233-141.517.087-141.974l.259-.37h20.752c13.963 0 20.857.056 21.073.172m126.904-.006c.951.361.919-.323.919 19.797 0 15.69-.036 18.522-.237 18.797-.23.315-.586.325-13.166.368l-12.93.045v51.039c0 50.504-.016 51.983-.539 52.315-.528.335-42.066.16-42.485-.179l-.393-.319-.083-51.389-.084-51.39-12.971-.083c-12.598-.081-12.979-.093-13.209-.407-.201-.275-.236-3.108-.236-18.797 0-19.969-.024-19.431.867-19.788.542-.218 93.975-.227 94.547-.009m56.811.853c.952.434 1.317 3.439.524 4.315-.43.475-42.211.531-42.604.057-.315-.381-.322-3.728-.008-4.106.121-.146.459-.296.75-.332 1.388-.174 40.95-.11 41.338.066m-21.632 9.667c.407.103.74.248.74.324 0 .075.335.187.745.248.433.065.926.279 1.176.51.236.219.579.399.762.399s.52.187.749.416c.229.23.484.417.567.417s.353.188.6.417.519.416.603.416c.249 0 2.756 2.605 2.878 2.991.062.194.294.535.516.757s.404.505.404.629.178.467.396.762.444.836.502 1.201c.059.366.243.802.411.969.615.616.643 7.15.034 8.025-.16.229-.384.806-.498 1.283s-.318.958-.453 1.07c-.134.112-.349.454-.477.761-.129.306-.349.601-.491.656-.141.054-.257.201-.257.327 0 .305-1.859 2.191-2.356 2.39-.285.114.13.161 1.492.169 2.624.014 2.53-.072 2.53 2.35 0 3.006 1.947 2.66-14.976 2.66-18.016 0-16.357.284-16.357-2.796 0-2.093.009-2.101 2.439-2.204 1.727-.073 1.911-.108 1.514-.288-.249-.112-.453-.32-.453-.462s-.187-.329-.417-.416c-.229-.087-.416-.27-.416-.407s-.14-.323-.311-.414c-.171-.092-.402-.389-.515-.661s-.309-.534-.435-.583c-.127-.049-.317-.429-.422-.845-.104-.416-.26-.757-.346-.757-.225 0-.638-1.072-.638-1.656 0-.275-.169-.821-.375-1.214-.516-.981-.567-5.103-.072-5.857.166-.254.375-.925.463-1.492.099-.636.277-1.129.464-1.287.167-.141.353-.522.414-.847s.297-.753.525-.951.414-.472.414-.608.188-.37.417-.52.417-.353.417-.451c0-.266 1.883-2.057 2.302-2.191.201-.063.364-.224.364-.358s.206-.321.456-.416c.251-.096.591-.318.755-.494s.503-.37.752-.431c.25-.061.666-.287.925-.502.259-.216.672-.392.917-.393s.82-.186 1.279-.412c.949-.466 8.72-.642 10.343-.234m-7.481 4.662c-.784.097-1.481.285-1.75.474-.245.172-.743.364-1.107.427-.363.062-.761.257-.884.432s-.329.319-.458.319c-.13 0-.451.206-.714.458s-.735.697-1.047.989c-.939.876-1.486 1.488-1.486 1.662 0 .09-.177.319-.394.507-.259.225-.435.613-.512 1.126-.067.446-.268.933-.469 1.133-.528.528-.533 4.682-.006 5.351.189.241.396.716.46 1.057.064.34.297.834.519 1.097.221.264.402.63.402.815 0 .191.138.372.32.42.176.046.404.283.507.526s.454.63.78.859.748.585.939.792c.191.206.432.375.535.375.104 0 .429.178.725.396.295.218.823.442 1.174.498.35.056.853.271 1.116.479.725.57 6.945.586 7.512.019.196-.196.683-.412 1.082-.48.398-.067.986-.3 1.306-.517.32-.218.65-.395.734-.395.083 0 .31-.15.503-.333 1.632-1.545 2.168-2.114 2.525-2.68.227-.36.481-.654.563-.654.083 0 .2-.295.261-.656s.253-.82.428-1.021c.677-.781.712-5.802.045-6.518-.198-.214-.412-.664-.474-1.002-.062-.337-.215-.652-.338-.7-.124-.047-.35-.333-.502-.636-.501-.994-2.607-2.967-3.167-2.967-.126 0-.305-.143-.399-.318-.103-.193-.435-.363-.842-.432-.37-.063-.789-.231-.932-.373-.519-.519-4.543-.825-6.955-.529m29.493 32.914c.731.775.851 2.992.199 3.686l-.362.385h-7.471c-4.281 0-7.471.064-7.471.149 0 .082.378.551.84 1.042s.947 1.09 1.077 1.331.348.481.484.533.298.367.36.7c.063.332.261.742.44.909.18.167.397.616.483.998s.318.913.516 1.181c.61.826.546 6.851-.087 8.173-.246.513-.447 1.085-.447 1.27s-.166.547-.369.806c-.203.258-.484.669-.625.913-.694 1.203-1.007 1.609-2.03 2.635-1.467 1.47-2.331 2.194-2.619 2.194-.129 0-.403.168-.609.375-.626.628-1.79 1.248-2.581 1.374-.413.065-.914.27-1.115.454-.306.282-.669.35-2.25.423-1.186.055-2.007.171-2.214.314-.457.315-2.154.299-2.421-.024-.15-.181-.559-.252-1.479-.257-1.571-.009-2.694-.215-2.931-.538-.098-.135-.504-.301-.902-.368s-.86-.259-1.028-.427c-.168-.167-.579-.38-.913-.472-.334-.093-.808-.361-1.052-.597-1.002-.964-1.154-1.091-1.307-1.091-.089 0-.319-.168-.513-.375-.193-.206-.656-.673-1.03-1.037-.373-.364-.678-.721-.678-.793 0-.071-.188-.293-.417-.492-.229-.2-.417-.448-.417-.553 0-.104-.18-.346-.4-.537-.22-.192-.453-.599-.518-.905-.065-.307-.265-.718-.445-.914-.188-.205-.379-.738-.449-1.25-.068-.492-.268-1.115-.447-1.386-.518-.787-.481-5.062.051-6.005.206-.366.375-.853.376-1.084.001-.669.318-1.628.57-1.724.127-.049.278-.303.335-.564.058-.261.29-.69.516-.954.226-.263.411-.54.411-.615s.603-.739 1.34-1.474l1.339-1.338h-1.951c-2.544 0-2.561-.013-2.561-2.086 0-1.674.272-2.314 1.045-2.463.204-.04 9.55-.082 20.769-.095l20.397-.022zm-30.131 4.389c-.223.175-.871.41-1.44.522s-1.034.265-1.034.341c0 .075-.319.292-.709.48-1.027.499-1.753 1.045-1.849 1.393-.046.168-.24.345-.43.395s-.346.189-.346.309-.171.355-.381.522-.479.542-.599.833c-.119.292-.354.654-.521.805-.171.155-.353.633-.417 1.093-.062.449-.255.998-.43 1.221-.416.529-.473 3.654-.075 4.095.134.148.352.733.484 1.3.133.566.398 1.23.59 1.474s.349.525.349.624c0 .196.098.305 1.763 1.984.614.618 1.216 1.125 1.337 1.125s.355.142.519.317c.164.174.607.399.985.5.377.101.865.323 1.083.492 1.012.788 8.395.805 8.815.02.085-.158.48-.369.879-.47.399-.1.863-.334 1.031-.521.169-.186.411-.338.538-.338.128 0 .425-.193.66-.428.236-.236.607-.496.826-.58.219-.083.398-.256.398-.386 0-.129.187-.358.416-.508.23-.15.417-.37.417-.489s.225-.468.5-.776.5-.674.5-.813.192-.53.427-.869c.671-.968.571-6.383-.135-7.383-.252-.356-.459-.785-.459-.952 0-.168-.15-.385-.333-.483s-.333-.272-.333-.387-.477-.694-1.059-1.286c-1.479-1.504-1.799-1.773-2.275-1.912-.229-.067-.545-.234-.702-.372s-.631-.315-1.053-.394c-.423-.079-.961-.295-1.196-.479-.634-.499-6.111-.514-6.741-.019m3.992 29.578c.268.137 1.2.26 2.298.303 1.526.061 1.951.137 2.437.438.323.2.789.363 1.034.363.248 0 .623.177.842.396.218.217.652.444.964.502.313.059.731.293.929.521.199.228.482.415.631.415.431 0 3.732 2.929 3.732 3.312 0 .097.225.432.5.746.275.313.5.667.5.786 0 .12.159.387.353.593.194.207.419.731.5 1.165s.273.927.426 1.096c.65.719.655 8.045.006 8.763-.151.166-.358.694-.46 1.172-.112.521-.306.934-.484 1.029-.163.088-.344.395-.402.683-.214 1.071-3.763 4.728-4.786 4.932-.251.051-.493.229-.536.396-.051.195-.303.346-.696.42-.339.064-.808.294-1.043.511-.259.241-.63.396-.946.396-.286 0-.819.167-1.184.372-.851.476-5.694.677-6.048.251-.148-.178-.209-3.299-.241-12.306l-.042-12.067-1.806.055c-1.505.046-1.858.108-2.122.373-.175.174-.625.366-1.001.426s-.724.215-.773.343-.361.372-.694.542c-.332.17-.747.467-.922.66-.174.193-.418.351-.541.351-.124 0-.225.064-.225.143 0 .136-.476.809-1.373 1.94-.218.275-.488.815-.599 1.201-.112.385-.328.825-.48.978-.477.476-.393 4.843.105 5.517.205.277.414.817.466 1.201.058.437.208.76.398.862.168.09.394.46.503.824.113.377.33.703.506.758.169.054.308.162.308.24 0 .172 1.26 1.502 1.423 1.502.064 0 .372.225.685.5.314.275.65.5.748.5.155 0 .563.288 1.454 1.027.358.297.129 1.449-.381 1.922-.236.219-.429.549-.429.732 0 1.156-2.27 1.585-2.884.545-.073-.124-.236-.226-.362-.226s-.441-.177-.7-.394c-.259-.216-.626-.442-.816-.501-.19-.06-.889-.651-1.554-1.315-1.765-1.761-1.812-1.817-2.087-2.478-.138-.332-.357-.645-.486-.695-.129-.049-.286-.291-.347-.537-.062-.245-.264-.651-.449-.902-.185-.25-.393-.861-.462-1.358-.07-.497-.271-1.166-.447-1.486-.52-.944-.481-5.996.052-6.853.206-.332.375-.841.375-1.131 0-.608.409-1.683.64-1.683.086 0 .205-.26.265-.579.059-.318.24-.674.402-.791.161-.117.385-.438.497-.713.252-.621 2.008-2.461 2.864-3.001.35-.221.686-.481.744-.576.059-.095.245-.173.412-.173s.425-.184.572-.409c.168-.257.499-.452.888-.525.341-.064.735-.258.876-.43s.557-.358.923-.413c.367-.056.824-.243 1.015-.416.287-.259.755-.34 2.636-.455 1.296-.08 2.369-.222 2.477-.33.256-.256.876-.238 1.422.04m3.218 5.82c-.233.233-.257 18.411-.025 18.778.132.209.201.201.485-.057.183-.165.654-.373 1.048-.461.395-.089.856-.31 1.025-.492.17-.182.527-.374.795-.428.268-.053.488-.161.488-.239 0-.196 1.472-1.65 1.671-1.65.089 0 .162-.14.162-.31 0-.171.225-.594.5-.94s.5-.796.5-1c0-.205.169-.586.375-.848.523-.665.585-5.901.074-6.274-.166-.121-.371-.533-.457-.916-.086-.382-.344-.883-.574-1.112-.23-.23-.418-.502-.418-.605 0-.214-1.287-1.495-1.502-1.495-.078 0-.186-.139-.24-.308-.055-.173-.377-.392-.734-.498-.35-.105-.773-.342-.939-.526-.167-.184-.444-.335-.616-.335s-.565-.105-.874-.234c-.409-.171-.61-.184-.744-.05m22.873 29.542.609.592v1.484 1.484l-.609.591-.608.591-20.1-.004c-19.898-.004-21.128-.036-21.664-.573-.395-.394-.391-3.788.005-4.184.514-.514 1.429-.538 21.576-.555l20.183-.017zm36.526 2.471c.275.148.78.27 1.123.27.68.001 2.565.886 2.928 1.375.12.161.313.293.428.293.116 0 .505.262.866.583.36.321.697.583.749.584.052 0 .255.285.451.633.196.349.51.773.697.943.188.17.341.398.341.507s.149.333.33.497c.182.164.379.57.437.901.059.331.267.864.462 1.185.537.884.543 6.717.007 7.445-.191.26-.395.772-.453 1.139-.058.366-.258.791-.444.943s-.339.358-.339.458-.134.316-.297.48c-.164.164-.472.578-.684.922-.212.343-.678.773-1.035.955-.358.183-.65.407-.65.499s-.202.244-.448.338c-.247.094-.551.317-.676.495-.128.183-.515.371-.885.43-.362.058-.658.196-.658.308 0 .254-.718.588-1.263.588-.228 0-.881.159-1.451.352-1.223.415-3.366.374-4.247-.081-.287-.149-.754-.271-1.036-.271-.597 0-1.67-.411-1.67-.639 0-.086-.25-.204-.555-.261s-.717-.291-.915-.519c-.199-.228-.442-.414-.542-.414-.269 0-2.793-2.647-2.918-3.06-.059-.196-.256-.518-.436-.716-.181-.197-.401-.679-.488-1.07-.088-.391-.288-.805-.445-.919-.435-.318-.429-6.707.007-7.189.161-.177.359-.685.442-1.129.088-.466.292-.919.483-1.071.183-.144.383-.435.447-.645.063-.211.446-.724.851-1.141.405-.416.736-.828.736-.914s.131-.206.292-.267c.16-.061.428-.284.595-.495s.408-.384.536-.384.309-.144.403-.32.453-.412.798-.524c.344-.113.805-.344 1.023-.514.219-.17.649-.309.955-.309.307 0 .841-.108 1.186-.24 1.012-.386 1.214-.411 2.879-.354 1.052.035 1.751.144 2.083.323m-4.556 2.445c-.868.091-1.327.225-1.583.465-.199.185-.573.389-.831.453-.259.064-.558.258-.665.429-.107.172-.263.313-.347.313-.244 0-2.268 2.157-2.268 2.417 0 .131-.145.315-.323.411-.212.113-.362.431-.436.924-.062.413-.266.946-.452 1.183-.51.648-.502 4.491.01 5.142.187.238.391.731.452 1.096.068.4.239.732.431.835.175.093.318.261.318.373.001.111.494.689 1.097 1.285s1.253 1.252 1.446 1.459c.193.206.519.375.724.375.206 0 .586.176.845.391 1.049.872 5.975.876 7.501.006.383-.219.812-.397.952-.397.141 0 .332-.141.423-.312.092-.171.432-.437.756-.591s.589-.352.589-.44.195-.328.433-.533c.238-.206.577-.656.754-.999.176-.344.385-.625.464-.625s.228-.338.332-.75c.104-.413.337-.994.519-1.292.483-.792.494-4.541.014-5.15-.174-.222-.406-.736-.516-1.143s-.361-.944-.558-1.194c-.197-.251-.621-.802-.942-1.226-.321-.423-.855-.911-1.187-1.084-.333-.173-.646-.42-.695-.549-.05-.13-.303-.289-.563-.353-.259-.065-.625-.261-.813-.436-.563-.525-3.32-.752-5.881-.483m3.473 1.91c.229.131.799.241 1.266.244.907.006 1.9.277 1.9.518 0 .08.225.262.5.404.275.143.5.367.5.498 0 .132.166.394.369.583.544.506.558 3.206.019 3.583-.192.135-.397.434-.455.666-.058.231-.213.42-.343.42-.131 0-.335.138-.455.307s-.385.395-.588.503c-.442.235-.372 1.049.14 1.615.169.188.357.6.416.917.059.316.254.693.435.838.18.144.39.594.467 1 .076.405.185.859.243 1.007.204.527-.357.813-1.593.813-1.242 0-1.821-.314-1.821-.987 0-.176-.188-.544-.418-.817-.229-.273-.466-.74-.526-1.038-.06-.299-.235-.67-.39-.825s-.331-.584-.39-.953c-.113-.71-.423-.88-1.61-.88-.71 0-.796.26-.859 2.584-.072 2.693-.2 2.916-1.671 2.916-1.794 0-1.799-.019-1.801-7.432l-.002-5.517.591-.608.592-.609 2.533.006c1.882.004 2.641.067 2.951.244m-73.334 1.739c0 .08.225.223.5.319s.5.289.5.43c0 .14.182.301.405.357.401.101 1.262 1.153 1.262 1.543 0 .113-.546.748-1.213 1.413-.849.847-1.274 1.413-1.417 1.892-.113.376-.317.777-.454.891-.301.249-.368 2.999-.073 2.999.097 0 .317.319.49.708 1.037 2.337 4.516 3.041 6.589 1.335.501-.413.911-.857.911-.988 0-.13.188-.424.417-.653.229-.23.417-.52.417-.647 0-.126.189-.455.421-.73.231-.275.501-.731.599-1.013.099-.281.246-.512.327-.512.082 0 .261-.269.398-.598.323-.773 1.333-2.079 2.505-3.238 1.191-1.178 1.325-1.288 1.916-1.566.321-.15.771-.385 1-.522.741-.442 6.685-.274 7.196.203.213.2.589.413.835.474.578.143 2.775 2.325 2.914 2.894.058.24.271.636.473.879.69.83.746 5.472.076 6.224-.163.183-.383.656-.487 1.05-.105.395-.294.757-.42.805-.127.049-.3.29-.386.536-.166.475-.487.891-1.721 2.222-.948 1.024-1.487.972-2.703-.262-.417-.422-.834-.768-.928-.768-.755 0-.666-1.739.11-2.147.206-.109.375-.305.375-.436s.15-.319.333-.417.333-.278.333-.399c0-.122.231-.512.514-.868.688-.866.708-4.014.028-4.489-.206-.145-.375-.369-.375-.5 0-.13-.206-.286-.458-.346-.252-.059-.634-.267-.848-.461-.559-.508-2.265-.481-2.63.04-.137.196-.358.357-.49.357-.315 0-2.241 1.928-2.241 2.244 0 .134-.144.321-.32.415s-.403.425-.506.736c-.102.31-.327.691-.498.847-.172.155-.361.478-.421.717-.061.239-.292.652-.515.917-.224.266-.406.589-.406.718 0 .13-.15.33-.334.444-.183.115-.333.299-.333.409 0 .282-2.134 2.386-2.42 2.386-.129 0-.313.147-.409.326-.099.184-.434.375-.769.438-.327.061-.743.271-.924.465-.62.667-5.864.614-6.649-.066-.209-.181-.559-.33-.779-.33-.219 0-.586-.187-.815-.416s-.484-.417-.567-.417c-.195 0-2.335-2.14-2.335-2.335 0-.082-.187-.337-.416-.567-.237-.236-.417-.609-.417-.862 0-.246-.169-.718-.375-1.05-.546-.877-.564-4.401-.027-5.13.192-.26.391-.791.443-1.181.09-.681.769-1.928 1.429-2.625.173-.183.361-.465.417-.625.057-.16.22-.292.363-.292s.315-.145.38-.322c.309-.831 2.203-1.566 2.203-.855m70.368.819c-.155.099-.202.53-.167 1.539l.049 1.403 1.95.047c1.882.045 1.957.033 2.152-.334.112-.209.322-.472.467-.585.213-.165.222-.234.046-.35-.12-.079-.315-.474-.434-.878-.21-.712-.24-.737-1.032-.844-1.171-.159-2.779-.157-3.031.002" fill="#045cab"/></g></svg>